<svg width="56" height="56" viewBox="0 0 56 56" fill="none" xmlns="http://www.w3.org/2000/svg">
<g clip-path="url(#clip0_1079_28)">
<path fill-rule="evenodd" clip-rule="evenodd" d="M36.9981 46.0704C34.281 50.5991 30.9952 52.64 28 52.64C25.0047 52.64 21.719 50.5991 19.0018 46.0704C16.3247 41.6086 14.56 35.2276 14.56 28C14.56 20.7723 16.3247 14.3915 19.0018 9.92972C21.719 5.40106 25.0047 3.36 28 3.36C30.9952 3.36 34.281 5.40106 36.9981 9.92972C39.6752 14.3915 41.44 20.7723 41.44 28C41.44 35.2276 39.6752 41.6086 36.9981 46.0704ZM56 28C56 12.536 43.4638 0 28 0C12.536 0 0 12.536 0 28C0 43.4638 12.536 56 28 56C43.4638 56 56 43.4638 56 28ZM3.36 28C3.36 38.0604 9.38913 46.7124 18.0312 50.54C13.8875 45.4409 11.2 37.2436 11.2 28C11.2 18.7564 13.8875 10.559 18.0312 5.45986C9.38913 9.28763 3.36 17.9397 3.36 28ZM52.64 28C52.64 38.0604 46.6108 46.7124 37.9688 50.54C42.1126 45.4409 44.8 37.2436 44.8 28C44.8 18.7564 42.1126 10.559 37.9688 5.45986C46.6108 9.28763 52.64 17.9397 52.64 28ZM28 31.08C29.701 31.08 31.08 29.701 31.08 28C31.08 26.299 29.701 24.92 28 24.92C26.299 24.92 24.92 26.299 24.92 28C24.92 29.701 26.299 31.08 28 31.08Z" fill="#7B41F5"/>
</g>
<defs>
<clipPath id="clip0_1079_28">
<rect width="56" height="56" fill="white"/>
</clipPath>
</defs>
</svg>
