<svg width="56" height="56" viewBox="0 0 56 56" fill="none" xmlns="http://www.w3.org/2000/svg">
<g clip-path="url(#clip0_1500_114)">
<path d="M15.3778 24.0887C26.4889 26.9331 10.6667 10.3998 10.6667 10.3998L20.8 18.4887C25.8667 22.6664 25.1555 20.7109 24.8 15.822L23.4667 4.88866L27.7333 15.6442C28.8889 18.5776 31.0222 18.9331 32.1778 14.7553L37.0667 2.93311L35.7333 15.9109C35.2 20.3553 36.4444 19.1109 40.7111 15.1109L52.3556 4.97755L42.6667 17.0664C39.8222 20.9776 37.7778 23.022 41.5111 23.3776L54.9333 22.7553L43.3778 25.5998C36.8 27.9998 41.5111 29.422 47.6444 31.822L55.3778 35.2887L45.6 33.3331C38.3111 31.2887 36.3555 32.622 41.5111 38.4887L50.4889 48.622L40.2667 40.7998C38.0444 38.7553 34.2222 37.0664 34.4 40.5331L35.5555 52.9775L31.7333 40.4442C30.8444 37.1553 29.8667 37.0664 28.1778 42.222L24.8 52.3553L25.5111 43.1998C25.6889 37.5109 24.8889 37.2442 21.2444 40.2664L10.6667 48.3553L18.4889 38.3109C20.8889 35.4664 21.8667 33.422 18.6667 33.2442L5.59999 35.3776L14.5778 31.6442C17.5111 30.3109 21.2444 29.3331 14.3111 26.6664L0.533325 20.8887L15.3778 24.0887Z" fill="#7B41F5"/>
</g>
<defs>
<clipPath id="clip0_1500_114">
<rect width="56" height="56" fill="white"/>
</clipPath>
</defs>
</svg>
