<svg width="56" height="56" viewBox="0 0 56 56" fill="none" xmlns="http://www.w3.org/2000/svg">
<g clip-path="url(#clip0_1476_326)">
<path d="M15.3776 24.0887C26.4888 26.9331 10.6665 10.3998 10.6665 10.3998L20.7999 18.4887C25.8665 22.6664 25.1554 20.7109 24.7999 15.822L23.4665 4.88866L27.7332 15.6442C28.8888 18.5776 31.0221 18.9331 32.1776 14.7553L37.0665 2.93311L35.7332 15.9109C35.1999 20.3553 36.4443 19.1109 40.711 15.1109L52.3554 4.97755L42.6665 17.0664C39.8221 20.9776 37.7777 23.022 41.511 23.3776L54.9332 22.7553L43.3776 25.5998C36.7999 27.9998 41.511 29.422 47.6443 31.822L55.3776 35.2887L45.5999 33.3331C38.311 31.2887 36.3554 32.622 41.511 38.4887L50.4888 48.622L40.2665 40.7998C38.0443 38.7553 34.2221 37.0664 34.3999 40.5331L35.5554 52.9775L31.7332 40.4442C30.8443 37.1553 29.8665 37.0664 28.1776 42.222L24.7999 52.3553L25.511 43.1998C25.6888 37.5109 24.8888 37.2442 21.2443 40.2664L10.6665 48.3553L18.4888 38.3109C20.8888 35.4664 21.8665 33.422 18.6665 33.2442L5.59987 35.3776L14.5776 31.6442C17.511 30.3109 21.2443 29.3331 14.311 26.6664L0.533203 20.8887L15.3776 24.0887Z" fill="#C0FE1F"/>
</g>
<defs>
<clipPath id="clip0_1476_326">
<rect width="56" height="56" fill="white"/>
</clipPath>
</defs>
</svg>
