<svg width="381" height="364" viewBox="0 0 381 364" fill="none" xmlns="http://www.w3.org/2000/svg">
<rect y="115.68" width="201.6" height="285.6" rx="18.48" transform="rotate(-35.0162 0 115.68)" fill="#191816"/>
<circle cx="168.417" cy="175.135" r="81.9" transform="rotate(-35.02 168.417 175.135)" stroke="#FEFCED" stroke-width="0.84"/>
<path d="M122.152 108.247L215.779 241.861" stroke="#FEFCED" stroke-width="0.84"/>
<path d="M235.833 127.894L101.001 222.375" stroke="#FEFCED" stroke-width="0.84"/>
<path d="M174.57 170.822C187.61 189.432 198.708 206.768 206.11 219.752C209.812 226.246 212.582 231.64 214.21 235.555C215.025 237.516 215.544 239.085 215.756 240.226C215.862 240.799 215.885 241.238 215.843 241.554C215.801 241.872 215.702 242.006 215.619 242.065C215.536 242.123 215.375 242.17 215.062 242.101C214.751 242.033 214.346 241.861 213.844 241.566C212.844 240.977 211.546 239.954 209.981 238.518C206.857 235.652 202.732 231.206 197.892 225.51C188.215 214.121 175.709 197.772 162.669 179.162C149.629 160.553 138.531 143.217 131.129 130.233C127.427 123.739 124.656 118.345 123.029 114.43C122.214 112.469 121.695 110.9 121.483 109.758C121.377 109.186 121.354 108.747 121.396 108.431C121.438 108.113 121.537 107.979 121.62 107.92C121.703 107.862 121.864 107.815 122.177 107.884C122.488 107.952 122.893 108.124 123.395 108.419C124.395 109.007 125.693 110.031 127.258 111.467C130.382 114.333 134.506 118.779 139.347 124.475C149.024 135.864 161.53 152.213 174.57 170.822Z" stroke="#FEFCED" stroke-width="0.84"/>
<path d="M180.256 166.838C193.292 185.441 203.77 203.198 210.174 216.863C213.378 223.699 215.553 229.493 216.525 233.848C217.011 236.027 217.19 237.821 217.059 239.193C216.927 240.57 216.492 241.453 215.822 241.922C215.152 242.392 214.174 242.499 212.835 242.153C211.5 241.808 209.875 241.028 207.992 239.827C204.23 237.427 199.528 233.404 194.196 228.06C183.538 217.375 170.425 201.465 157.389 182.862C144.353 164.259 133.875 146.503 127.471 132.837C124.267 126.001 122.092 120.208 121.12 115.853C120.634 113.674 120.455 111.88 120.586 110.507C120.718 109.13 121.154 108.247 121.823 107.778C122.493 107.309 123.471 107.201 124.81 107.547C126.146 107.892 127.771 108.673 129.653 109.874C133.415 112.274 138.118 116.296 143.449 121.641C154.108 132.325 167.221 148.236 180.256 166.838Z" stroke="#FEFCED" stroke-width="0.84"/>
<path d="M185.943 162.855C198.973 181.45 208.786 199.658 214.122 214.056C216.792 221.258 218.332 227.483 218.605 232.316C218.88 237.176 217.87 240.488 215.62 242.065C213.369 243.642 209.911 243.461 205.437 241.544C200.988 239.637 195.662 236.064 189.804 231.096C178.093 221.166 164.329 205.727 151.298 187.131C138.267 168.535 128.454 150.328 123.118 135.93C120.449 128.728 118.909 122.503 118.635 117.67C118.36 112.81 119.37 109.498 121.621 107.921C123.871 106.344 127.329 106.525 131.803 108.442C136.253 110.349 141.578 113.922 147.437 118.889C159.148 128.82 172.912 144.259 185.943 162.855Z" stroke="#FEFCED" stroke-width="0.84"/>
<path d="M190.673 159.236C203.66 177.769 212.888 196.3 217.316 211.267C219.531 218.753 220.538 225.324 220.229 230.547C219.919 235.777 218.297 239.582 215.335 241.658C212.372 243.734 208.242 243.959 203.221 242.465C198.205 240.973 192.373 237.783 186.092 233.146C173.536 223.875 159.269 208.876 146.282 190.342C133.295 171.809 124.067 153.278 119.639 138.311C117.424 130.825 116.417 124.254 116.727 119.03C117.036 113.801 118.658 109.996 121.621 107.92C124.583 105.844 128.713 105.619 133.734 107.113C138.75 108.605 144.583 111.795 150.863 116.432C163.419 125.703 177.686 140.702 190.673 159.236Z" stroke="#FEFCED" stroke-width="0.84"/>
<path d="M196.765 154.967C209.747 173.493 218.311 192.475 221.675 208.176C223.358 216.027 223.735 223.037 222.73 228.751C221.725 234.463 219.345 238.848 215.538 241.516C211.731 244.184 206.797 244.923 201.085 243.918C195.371 242.913 188.911 240.165 182.105 235.904C168.496 227.382 153.578 212.852 140.596 194.327C127.615 175.801 119.05 156.819 115.686 141.118C114.004 133.267 113.627 126.257 114.632 120.543C115.637 114.831 118.017 110.446 121.824 107.778C125.631 105.11 130.565 104.37 136.277 105.375C141.991 106.381 148.451 109.129 155.257 113.39C168.866 121.912 183.784 136.442 196.765 154.967Z" stroke="#FEFCED" stroke-width="0.84"/>
<path d="M202.858 150.699C215.833 169.216 223.713 188.665 225.978 205.127C228.247 221.613 224.875 234.974 215.538 241.516C206.201 248.059 192.493 246.667 177.771 238.907C163.071 231.158 147.481 217.113 134.505 198.596C121.529 180.078 113.65 160.629 111.385 144.168C109.116 127.681 112.487 114.321 121.824 107.778C131.161 101.236 144.87 102.627 159.592 110.388C174.291 118.136 189.882 132.182 202.858 150.699Z" stroke="#FEFCED" stroke-width="0.84"/>
<path d="M210.574 145.293C223.541 163.798 230.532 183.855 231.371 201.309C232.21 218.769 226.895 233.559 215.335 241.659C203.775 249.76 188.059 249.707 171.934 242.958C155.815 236.212 139.35 222.794 126.382 204.288C113.415 185.782 106.423 165.726 105.585 148.272C104.746 130.811 110.061 116.021 121.621 107.921C133.181 99.821 148.897 99.8737 165.022 106.623C181.141 113.369 197.606 126.787 210.574 145.293Z" stroke="#FEFCED" stroke-width="0.84"/>
<path d="M217.619 140.657C230.618 159.208 236.828 179.877 236.376 198.287C235.924 216.697 228.816 232.817 215.213 242.349C201.61 251.881 184.031 253.06 166.573 247.2C149.114 241.34 131.806 228.448 118.807 209.897C105.809 191.347 99.5991 170.678 100.051 152.268C100.503 133.857 107.611 117.737 121.214 108.205C134.817 98.673 152.396 97.4945 169.854 103.354C187.312 109.214 204.62 122.107 217.619 140.657Z" stroke="#FEFCED" stroke-width="0.84"/>
<path d="M230.067 131.633C255.964 168.589 249.234 217.905 215.132 241.802C181.03 265.698 132.379 255.189 106.482 218.232C80.5857 181.276 87.3157 131.96 121.418 108.063C155.52 84.1671 204.171 94.676 230.067 131.633Z" stroke="#FEFCED" stroke-width="0.84"/>
<path d="M223.975 135.901C249.896 172.892 245.749 220.347 214.929 241.944C184.109 263.54 138.088 251.239 112.168 214.248C86.2474 177.257 90.3946 129.802 121.215 108.205C152.035 86.609 198.055 98.9105 223.975 135.901Z" stroke="#FEFCED" stroke-width="0.84"/>
<path d="M164.105 168.982C182.714 155.942 200.05 144.844 213.034 137.442C219.528 133.74 224.922 130.97 228.837 129.342C230.798 128.527 232.367 128.008 233.509 127.796C234.081 127.69 234.52 127.667 234.836 127.709C235.154 127.751 235.289 127.85 235.347 127.933C235.405 128.016 235.452 128.177 235.383 128.49C235.315 128.801 235.143 129.206 234.848 129.708C234.26 130.708 233.236 132.006 231.8 133.571C228.934 136.695 224.488 140.82 218.792 145.66C207.403 155.337 191.054 167.843 172.445 180.883C153.835 193.923 136.499 205.021 123.515 212.423C117.021 216.125 111.627 218.896 107.712 220.523C105.751 221.338 104.182 221.857 103.041 222.069C102.468 222.175 102.029 222.198 101.713 222.156C101.396 222.114 101.261 222.015 101.202 221.932C101.144 221.849 101.097 221.688 101.166 221.375C101.234 221.064 101.406 220.659 101.701 220.157C102.29 219.157 103.314 217.859 104.749 216.294C107.615 213.17 112.061 209.046 117.757 204.205C129.146 194.528 145.495 182.022 164.105 168.982Z" stroke="#FEFCED" stroke-width="0.84"/>
<path d="M160.12 163.296C178.723 150.261 196.48 139.782 210.145 133.378C216.981 130.174 222.775 127.999 227.13 127.027C229.309 126.541 231.103 126.362 232.475 126.494C233.852 126.625 234.735 127.061 235.204 127.73C235.674 128.4 235.781 129.378 235.435 130.718C235.09 132.053 234.31 133.678 233.109 135.56C230.709 139.322 226.686 144.025 221.342 149.356C210.657 160.015 194.747 173.128 176.144 186.163C157.541 199.199 139.785 209.677 126.119 216.081C119.283 219.285 113.49 221.46 109.135 222.432C106.956 222.918 105.162 223.097 103.789 222.966C102.412 222.834 101.529 222.399 101.06 221.729C100.591 221.059 100.483 220.081 100.829 218.742C101.174 217.407 101.955 215.782 103.156 213.899C105.556 210.138 109.578 205.435 114.923 200.103C125.607 189.445 141.518 176.332 160.12 163.296Z" stroke="#FEFCED" stroke-width="0.84"/>
<path d="M156.136 157.61C174.732 144.58 192.94 134.767 207.338 129.431C214.539 126.761 220.765 125.221 225.598 124.948C230.458 124.673 233.77 125.683 235.347 127.933C236.924 130.184 236.743 133.642 234.825 138.116C232.918 142.565 229.345 147.891 224.378 153.749C214.448 165.46 199.009 179.224 180.413 192.255C161.817 205.286 143.609 215.099 129.212 220.435C122.01 223.104 115.784 224.644 110.951 224.918C106.091 225.193 102.779 224.182 101.203 221.932C99.6256 219.682 99.8064 216.224 101.724 211.75C103.631 207.3 107.204 201.974 112.171 196.116C122.102 184.405 137.541 170.641 156.136 157.61Z" stroke="#FEFCED" stroke-width="0.84"/>
<path d="M152.518 152.878C171.052 139.891 189.582 130.664 204.549 126.236C212.035 124.021 218.606 123.014 223.83 123.323C229.06 123.633 232.865 125.255 234.941 128.217C237.017 131.18 237.242 135.31 235.748 140.331C234.256 145.347 231.066 151.179 226.429 157.459C217.157 170.016 202.158 184.283 183.625 197.27C165.091 210.257 146.561 219.485 131.594 223.913C124.108 226.127 117.537 227.135 112.313 226.825C107.084 226.516 103.278 224.894 101.203 221.931C99.1267 218.969 98.9012 214.838 100.395 209.817C101.888 204.802 105.077 198.969 109.715 192.689C118.986 180.132 133.985 165.865 152.518 152.878Z" stroke="#FEFCED" stroke-width="0.84"/>
<path d="M148.249 146.787C166.775 133.805 185.757 125.241 201.458 121.877C209.309 120.194 216.319 119.817 222.033 120.823C227.745 121.828 232.13 124.207 234.798 128.014C237.466 131.822 238.205 136.756 237.2 142.467C236.195 148.181 233.447 154.642 229.186 161.447C220.664 175.057 206.134 189.974 187.609 202.956C169.083 215.937 150.101 224.502 134.4 227.866C126.549 229.548 119.539 229.926 113.825 228.92C108.113 227.915 103.728 225.536 101.06 221.728C98.392 217.921 97.6523 212.987 98.6574 207.275C99.6629 201.561 102.411 195.101 106.672 188.296C115.194 174.686 129.724 159.768 148.249 146.787Z" stroke="#FEFCED" stroke-width="0.84"/>
<path d="M143.981 140.695C162.498 127.719 181.947 119.839 198.409 117.574C214.895 115.305 228.255 118.677 234.798 128.014C241.341 137.351 239.949 151.06 232.189 165.781C224.44 180.481 210.395 196.072 191.877 209.047C173.36 222.023 153.911 229.902 137.449 232.168C120.963 234.436 107.603 231.065 101.06 221.728C94.5173 212.391 95.9091 198.682 103.669 183.961C111.418 169.261 125.463 153.67 143.981 140.695Z" stroke="#FEFCED" stroke-width="0.84"/>
<path d="M138.573 132.978C157.079 120.011 177.136 113.02 194.59 112.181C212.05 111.342 226.84 116.657 234.94 128.217C243.04 139.777 242.988 155.493 236.239 171.618C229.492 187.737 216.074 204.202 197.569 217.17C179.063 230.137 159.006 237.129 141.553 237.967C124.092 238.806 109.302 233.491 101.202 221.931C93.1018 210.371 93.1544 194.655 99.9033 178.53C106.65 162.411 120.068 145.946 138.573 132.978Z" stroke="#FEFCED" stroke-width="0.84"/>
<path d="M133.939 125.933C152.489 112.934 173.158 106.724 191.568 107.176C209.978 107.628 226.099 114.736 235.631 128.339C245.163 141.942 246.341 159.521 240.481 176.979C234.621 194.438 221.729 211.745 203.179 224.744C184.628 237.743 163.959 243.953 145.549 243.501C127.139 243.049 111.019 235.941 101.487 222.338C91.9545 208.735 90.776 191.156 96.6359 173.698C102.496 156.239 115.388 138.931 133.939 125.933Z" stroke="#FEFCED" stroke-width="0.84"/>
<path d="M124.914 113.486C161.871 87.5889 211.187 94.3189 235.083 128.421C258.979 162.523 248.47 211.174 211.514 237.071C174.557 262.967 125.241 256.237 101.345 222.135C77.4483 188.033 87.9573 139.382 124.914 113.486Z" stroke="#FEFCED" stroke-width="0.84"/>
<path d="M129.183 119.577C166.173 93.6571 213.629 97.8043 235.225 128.624C256.822 159.444 244.52 205.465 207.529 231.385C170.539 257.306 123.083 253.158 101.487 222.338C79.8905 191.518 92.192 145.498 129.183 119.577Z" stroke="#FEFCED" stroke-width="0.84"/>
<rect x="60.48" y="95.3892" width="201.6" height="285.6" rx="18.48" transform="rotate(-23.9849 60.48 95.3892)" fill="#3F3D38"/>
<circle cx="209.471" cy="179.232" r="81.9" transform="rotate(-23.98 209.471 179.232)" stroke="#FEFCED" stroke-width="0.84"/>
<path d="M176.871 104.721L243.179 253.791" stroke="#FEFCED" stroke-width="0.84"/>
<path d="M284.686 145.775L134.256 212.688" stroke="#FEFCED" stroke-width="0.84"/>
<path d="M216.337 176.178C225.572 196.94 233.145 216.081 237.923 230.242C240.313 237.324 241.999 243.149 242.847 247.303C243.271 249.384 243.481 251.024 243.47 252.184C243.464 252.766 243.403 253.202 243.301 253.504C243.199 253.808 243.076 253.921 242.983 253.962C242.89 254.004 242.724 254.019 242.43 253.892C242.137 253.765 241.773 253.519 241.337 253.133C240.468 252.364 239.39 251.11 238.129 249.402C235.611 245.99 232.415 240.837 228.755 234.32C221.438 221.288 212.293 202.847 203.058 182.085C193.823 161.323 186.25 142.182 181.472 128.021C179.083 120.939 177.396 115.114 176.548 110.959C176.124 108.879 175.915 107.239 175.926 106.078C175.931 105.496 175.992 105.061 176.094 104.758C176.196 104.455 176.319 104.342 176.412 104.3C176.505 104.259 176.671 104.244 176.965 104.371C177.258 104.498 177.622 104.744 178.058 105.13C178.928 105.899 180.005 107.152 181.266 108.861C183.784 112.272 186.981 117.425 190.64 123.943C197.957 136.974 207.102 155.416 216.337 176.178Z" stroke="#FEFCED" stroke-width="0.84"/>
<path d="M222.68 173.357C231.912 194.111 238.796 213.546 242.465 228.185C244.301 235.508 245.326 241.61 245.446 246.071C245.506 248.303 245.338 250.098 244.946 251.42C244.553 252.746 243.957 253.529 243.21 253.862C242.463 254.194 241.482 254.112 240.234 253.516C238.989 252.922 237.544 251.845 235.926 250.305C232.694 247.23 228.848 242.381 224.639 236.114C216.224 223.586 206.4 205.46 197.168 184.705C187.936 163.95 181.052 144.515 177.383 129.877C175.548 122.554 174.522 116.451 174.402 111.99C174.342 109.758 174.51 107.963 174.902 106.641C175.295 105.315 175.891 104.532 176.639 104.2C177.386 103.867 178.367 103.949 179.615 104.545C180.859 105.139 182.304 106.217 183.922 107.756C187.155 110.832 191 115.68 195.21 121.947C203.625 134.475 213.448 152.602 222.68 173.357Z" stroke="#FEFCED" stroke-width="0.84"/>
<path d="M229.024 170.535C238.253 191.282 244.397 211.031 246.878 226.185C248.118 233.764 248.438 240.17 247.781 244.966C247.12 249.788 245.494 252.845 242.984 253.962C240.473 255.079 237.113 254.239 233.089 251.501C229.088 248.777 224.545 244.25 219.746 238.253C210.153 226.264 199.6 208.475 190.372 187.728C181.143 166.981 174.999 147.231 172.518 132.078C171.278 124.498 170.958 118.093 171.615 113.297C172.276 108.474 173.902 105.417 176.412 104.3C178.923 103.183 182.282 104.023 186.306 106.762C190.308 109.485 194.851 114.012 199.65 120.009C209.243 131.999 219.796 149.788 229.024 170.535Z" stroke="#FEFCED" stroke-width="0.84"/>
<path d="M234.36 167.89C243.558 188.567 249.066 208.521 250.546 224.06C251.286 231.831 251.017 238.473 249.713 243.541C248.407 248.615 246.087 252.039 242.781 253.509C239.476 254.979 235.379 254.41 230.737 251.982C226.1 249.556 220.986 245.309 215.71 239.555C205.162 228.05 194.031 210.597 184.833 189.92C175.636 169.242 170.127 149.288 168.647 133.75C167.907 125.978 168.177 119.336 169.481 114.268C170.786 109.195 173.107 105.77 176.412 104.3C179.717 102.83 183.814 103.4 188.456 105.827C193.093 108.253 198.207 112.5 203.483 118.254C214.032 129.759 225.162 147.212 234.36 167.89Z" stroke="#FEFCED" stroke-width="0.84"/>
<path d="M241.157 164.867C250.351 185.535 255.122 205.806 255.417 221.86C255.565 229.889 254.593 236.841 252.512 242.257C250.432 247.671 247.256 251.519 243.009 253.408C238.761 255.298 233.777 255.079 228.363 252.999C222.947 250.918 217.133 246.984 211.269 241.498C199.544 230.528 187.684 213.41 178.491 192.741C169.297 172.073 164.526 151.802 164.23 135.747C164.083 127.719 165.055 120.767 167.136 115.351C169.216 109.937 172.391 106.089 176.639 104.199C180.887 102.31 185.871 102.529 191.285 104.609C196.7 106.69 202.515 110.624 208.378 116.11C220.104 127.08 231.963 144.198 241.157 164.867Z" stroke="#FEFCED" stroke-width="0.84"/>
<path d="M247.953 161.844C257.142 182.503 261.152 203.101 260.223 219.692C259.292 236.307 253.425 248.775 243.008 253.409C232.591 258.042 219.402 254.051 206.439 243.615C193.495 233.195 180.883 216.424 171.693 195.765C162.504 175.105 158.494 154.508 159.423 137.917C160.354 121.301 166.221 108.833 176.638 104.2C187.055 99.5662 200.244 103.557 213.207 113.993C226.151 124.413 238.763 141.184 247.953 161.844Z" stroke="#FEFCED" stroke-width="0.84"/>
<path d="M256.562 158.014C265.746 178.66 268.768 199.685 266.248 216.976C263.728 234.274 255.679 247.773 242.782 253.509C229.885 259.246 214.47 256.185 199.936 246.473C185.407 236.765 171.816 220.442 162.632 199.796C153.448 179.149 150.427 158.125 152.946 140.833C155.466 123.536 163.515 110.037 176.412 104.3C189.309 98.5637 204.724 101.625 219.259 111.337C233.788 121.045 247.379 137.368 256.562 158.014Z" stroke="#FEFCED" stroke-width="0.84"/>
<path d="M264.366 154.814C273.572 175.511 275.708 196.986 271.74 214.969C267.771 232.952 257.707 247.413 242.53 254.164C227.354 260.914 209.875 258.705 193.861 249.61C177.848 240.516 163.329 224.548 154.124 203.851C144.918 183.155 142.781 161.679 146.75 143.696C150.718 125.713 160.782 111.252 175.959 104.502C191.136 97.751 208.615 99.9605 224.628 109.055C240.641 118.15 255.16 134.118 264.366 154.814Z" stroke="#FEFCED" stroke-width="0.84"/>
<path d="M278.311 148.339C296.651 189.571 280.602 236.686 242.555 253.609C204.508 270.533 158.77 250.902 140.43 209.671C122.089 168.439 138.138 121.324 176.186 104.401C214.233 87.4768 259.971 107.108 278.311 148.339Z" stroke="#FEFCED" stroke-width="0.84"/>
<path d="M271.514 151.363C289.871 192.633 276.714 238.416 242.328 253.711C207.943 269.005 165.13 248.119 146.773 206.849C128.416 165.579 141.573 119.797 175.959 104.502C210.344 89.2067 253.157 110.093 271.514 151.363Z" stroke="#FEFCED" stroke-width="0.84"/>
<path d="M206.417 172.365C227.179 163.13 246.32 155.557 260.481 150.779C267.563 148.389 273.388 146.703 277.542 145.855C279.623 145.431 281.263 145.221 282.423 145.233C283.005 145.238 283.441 145.299 283.743 145.401C284.047 145.503 284.16 145.626 284.201 145.719C284.243 145.812 284.258 145.978 284.131 146.272C284.004 146.565 283.758 146.929 283.372 147.365C282.603 148.235 281.349 149.312 279.641 150.573C276.229 153.091 271.076 156.287 264.559 159.947C251.527 167.264 233.086 176.409 212.324 185.644C191.562 194.879 172.421 202.452 158.26 207.23C151.178 209.62 145.353 211.306 141.198 212.154C139.118 212.578 137.478 212.788 136.317 212.777C135.735 212.771 135.3 212.71 134.997 212.608C134.694 212.506 134.581 212.383 134.539 212.29C134.498 212.197 134.483 212.031 134.61 211.737C134.737 211.444 134.983 211.08 135.369 210.644C136.138 209.774 137.391 208.697 139.1 207.436C142.511 204.918 147.664 201.722 154.182 198.062C167.213 190.745 185.655 181.6 206.417 172.365Z" stroke="#FEFCED" stroke-width="0.84"/>
<path d="M203.596 166.023C224.35 156.791 243.785 149.907 258.424 146.238C265.747 144.402 271.849 143.377 276.31 143.257C278.542 143.197 280.337 143.365 281.659 143.757C282.985 144.15 283.768 144.746 284.101 145.493C284.433 146.24 284.351 147.221 283.755 148.469C283.161 149.714 282.084 151.159 280.544 152.777C277.469 156.009 272.62 159.855 266.353 164.064C253.825 172.479 235.699 182.303 214.944 191.535C194.189 200.767 174.755 207.651 160.116 211.32C152.793 213.155 146.69 214.181 142.229 214.301C139.997 214.361 138.202 214.193 136.88 213.801C135.554 213.408 134.771 212.811 134.439 212.064C134.106 211.317 134.188 210.336 134.784 209.088C135.378 207.844 136.456 206.398 137.995 204.781C141.071 201.548 145.919 197.703 152.186 193.493C164.714 185.078 182.841 175.255 203.596 166.023Z" stroke="#FEFCED" stroke-width="0.84"/>
<path d="M200.774 159.678C221.521 150.45 241.271 144.305 256.424 141.825C264.003 140.584 270.409 140.264 275.205 140.921C280.027 141.582 283.084 143.208 284.201 145.719C285.318 148.229 284.478 151.589 281.74 155.613C279.016 159.615 274.489 164.158 268.492 168.956C256.503 178.549 238.714 189.102 217.967 198.33C197.22 207.559 177.47 213.704 162.317 216.184C154.737 217.425 148.332 217.744 143.536 217.087C138.713 216.427 135.656 214.801 134.539 212.29C133.422 209.779 134.262 206.42 137.001 202.396C139.724 198.394 144.251 193.851 150.248 189.052C162.238 179.459 180.027 168.907 200.774 159.678Z" stroke="#FEFCED" stroke-width="0.84"/>
<path d="M198.129 154.341C218.806 145.144 238.761 139.635 254.299 138.155C262.07 137.415 268.713 137.685 273.78 138.989C278.854 140.294 282.278 142.615 283.748 145.92C285.218 149.225 284.649 153.322 282.221 157.964C279.796 162.601 275.548 167.715 269.794 172.991C258.29 183.54 240.836 194.671 220.159 203.868C199.481 213.066 179.527 218.574 163.989 220.054C156.217 220.795 149.575 220.525 144.507 219.221C139.434 217.915 136.01 215.595 134.539 212.29C133.069 208.985 133.639 204.887 136.067 200.245C138.492 195.608 142.74 190.494 148.494 185.219C159.998 174.67 177.451 163.539 198.129 154.341Z" stroke="#FEFCED" stroke-width="0.84"/>
<path d="M195.106 147.546C215.775 138.352 236.045 133.581 252.1 133.286C260.128 133.138 267.081 134.11 272.497 136.191C277.91 138.271 281.759 141.447 283.648 145.694C285.537 149.942 285.318 154.926 283.238 160.34C281.157 165.756 277.223 171.57 271.737 177.434C260.767 189.159 243.65 201.019 222.981 210.212C202.312 219.406 182.042 224.177 165.987 224.472C157.959 224.62 151.006 223.648 145.59 221.567C140.177 219.487 136.328 216.312 134.439 212.064C132.55 207.816 132.768 202.832 134.849 197.418C136.93 192.003 140.864 186.188 146.35 180.325C157.32 168.599 174.437 156.739 195.106 147.546Z" stroke="#FEFCED" stroke-width="0.84"/>
<path d="M192.083 140.75C212.742 131.56 233.34 127.551 249.931 128.48C266.546 129.41 279.014 135.278 283.648 145.695C288.281 156.112 284.29 169.3 273.854 182.263C263.434 195.207 246.663 207.82 226.004 217.009C205.344 226.199 184.747 230.208 168.156 229.279C151.54 228.349 139.072 222.481 134.439 212.064C129.805 201.647 133.796 188.459 144.232 175.496C154.652 162.552 171.423 149.939 192.083 140.75Z" stroke="#FEFCED" stroke-width="0.84"/>
<path d="M188.253 132.14C208.899 122.956 229.924 119.935 247.215 122.454C264.513 124.974 278.011 133.023 283.748 145.92C289.485 158.817 286.424 174.232 276.712 188.767C267.003 203.296 250.681 216.887 230.034 226.07C209.388 235.254 188.364 238.275 171.072 235.756C153.774 233.236 140.276 225.187 134.539 212.29C128.803 199.393 131.864 183.978 141.576 169.443C151.284 154.914 167.607 141.323 188.253 132.14Z" stroke="#FEFCED" stroke-width="0.84"/>
<path d="M185.054 124.337C205.75 115.131 227.226 112.995 245.208 116.963C263.191 120.932 277.652 130.996 284.403 146.173C291.154 161.349 288.944 178.828 279.85 194.842C270.755 210.855 254.787 225.373 234.09 234.579C213.394 243.785 191.918 245.922 173.936 241.953C155.953 237.984 141.492 227.921 134.741 212.744C127.99 197.567 130.2 180.088 139.294 164.075C148.389 148.062 164.357 133.543 185.054 124.337Z" stroke="#FEFCED" stroke-width="0.84"/>
<path d="M178.579 110.391C219.811 92.0507 266.925 108.1 283.849 146.147C300.773 184.194 281.142 229.932 239.91 248.272C198.678 266.613 151.564 250.564 134.64 212.517C117.716 174.47 137.347 128.731 178.579 110.391Z" stroke="#FEFCED" stroke-width="0.84"/>
<path d="M181.602 117.189C222.872 98.8315 268.655 111.989 283.95 146.375C299.245 180.76 278.358 223.573 237.088 241.93C195.819 260.287 150.036 247.129 134.741 212.744C119.446 178.359 140.332 135.546 181.602 117.189Z" stroke="#FEFCED" stroke-width="0.84"/>
<rect x="137.76" y="80.9146" width="201.6" height="285.6" rx="18.48" transform="rotate(-8.70593 137.76 80.9146)" fill="#827F77"/>
<path d="M179.148 106.972C182.137 106.514 184.901 108.579 185.359 111.568C185.817 114.557 183.792 117.315 180.803 117.772C179.567 117.962 178.39 117.734 177.364 117.157C172.62 114.947 167.04 115.802 163.175 119.331C162.369 120.189 161.314 120.758 160.038 120.954C157.089 121.405 154.331 119.38 153.874 116.391C153.458 113.681 155.069 111.15 157.559 110.361C166.013 106.7 171.321 98.218 170.926 88.9784C170.829 86.2194 172.777 83.759 175.527 83.3377C178.517 82.8798 181.28 84.9446 181.738 87.9337C182.153 90.6439 180.542 93.1749 178.053 93.9643C172.319 96.4743 167.981 101.177 165.958 106.871C164.981 109.55 167.404 112.32 170.163 111.693C172.331 111.198 174.373 110.151 176.057 108.628C176.864 107.77 177.913 107.161 179.148 106.972Z" fill="#FEFCED"/>
<path d="M103.526 108.691C106.289 107.462 109.499 108.726 110.728 111.489C111.957 114.252 110.73 117.446 107.967 118.675C106.825 119.183 105.63 119.273 104.487 118.987C99.3288 118.104 94.1713 120.398 91.3724 124.821C90.82 125.861 89.9524 126.688 88.7735 127.212C86.0474 128.425 82.8538 127.198 81.6248 124.435C80.5105 121.93 81.398 119.064 83.5918 117.646C90.783 111.888 93.6704 102.308 90.8552 93.4986C90.0356 90.8624 91.267 87.9758 93.8089 86.8451C96.5719 85.6161 99.7819 86.8801 101.011 89.6431C102.125 92.1482 101.238 95.0142 99.0438 96.4314C94.1733 100.363 91.2275 106.042 90.7749 112.068C90.5383 114.91 93.6052 116.943 96.1021 115.612C98.0628 114.563 99.7571 113.015 100.981 111.103C101.533 110.063 102.384 109.199 103.526 108.691Z" fill="#FEFCED"/>
<path d="M45.7641 122.109C48.2406 120.373 51.6333 120.999 53.3686 123.476C55.104 125.952 54.5111 129.322 52.0346 131.057C51.0109 131.774 49.855 132.092 48.679 132.03C43.4469 132.151 38.8241 135.391 36.9239 140.267C36.5809 141.394 35.8877 142.372 34.8311 143.112C32.3876 144.824 29.0181 144.231 27.2827 141.755C25.7093 139.51 26.0316 136.527 27.9135 134.716C33.8689 127.687 34.8682 117.731 30.4182 109.624C29.109 107.193 29.7648 104.124 32.0432 102.528C34.5197 100.792 37.9124 101.418 39.6477 103.895C41.2211 106.14 40.8989 109.123 39.017 110.934C34.9895 115.726 33.1856 121.864 33.8954 127.865C34.2073 130.699 37.6069 132.108 39.8027 130.323C41.5262 128.919 42.8928 127.075 43.7275 124.964C44.0705 123.837 44.7405 122.826 45.7641 122.109Z" fill="#FEFCED"/>
<path d="M362.268 313.612C365.257 313.154 368.021 315.219 368.479 318.208C368.937 321.197 366.912 323.955 363.923 324.413C362.687 324.602 361.51 324.374 360.484 323.797C355.74 321.587 350.16 322.442 346.295 325.971C345.489 326.829 344.434 327.398 343.158 327.594C340.209 328.046 337.451 326.021 336.993 323.031C336.578 320.321 338.189 317.79 340.679 317.001C346.986 314.24 351.539 308.811 353.287 302.384C353.788 300.594 352.379 298.852 350.521 298.973C347.655 299.167 344.895 300.324 342.675 302.337C341.868 303.195 340.819 303.804 339.544 304C336.594 304.451 333.831 302.387 333.373 299.397C332.915 296.408 334.934 293.611 337.883 293.159C339.158 292.964 340.341 293.231 341.368 293.808C346.112 296.018 351.692 295.163 355.556 291.634C356.363 290.777 357.412 290.167 358.647 289.978C361.636 289.52 364.4 291.585 364.858 294.574C365.273 297.284 363.662 299.815 361.173 300.604C355.399 303.121 351.067 307.863 349.05 313.597C348.107 316.23 350.484 318.966 353.204 318.345C355.377 317.89 357.459 316.837 359.177 315.268C359.984 314.411 361.033 313.801 362.268 313.612Z" fill="#FEFCED"/>
<circle cx="258.477" cy="206.397" r="81.9" transform="rotate(-8.71 258.477 206.397)" stroke="#FEFCED" stroke-width="0.84"/>
<path d="M246.652 125.93L271.359 287.201" stroke="#FEFCED" stroke-width="0.84"/>
<path d="M339.847 193.93L177.106 218.862" stroke="#FEFCED" stroke-width="0.84"/>
<path d="M265.905 205.259C269.346 227.72 271.611 248.179 272.491 263.098C272.931 270.56 273.024 276.624 272.747 280.855C272.609 282.974 272.379 284.61 272.062 285.727C271.904 286.287 271.73 286.692 271.552 286.956C271.374 287.222 271.225 287.299 271.125 287.314C271.025 287.33 270.86 287.301 270.61 287.101C270.361 286.901 270.074 286.568 269.755 286.081C269.119 285.11 268.41 283.617 267.643 281.637C266.113 277.683 264.386 271.869 262.572 264.618C258.945 250.12 254.981 229.921 251.54 207.459C248.099 184.998 245.835 164.539 244.955 149.62C244.514 142.158 244.421 136.094 244.698 131.863C244.836 129.744 245.066 128.108 245.383 126.991C245.541 126.431 245.715 126.026 245.893 125.762C246.071 125.496 246.22 125.419 246.32 125.404C246.421 125.388 246.585 125.417 246.835 125.617C247.084 125.817 247.371 126.15 247.69 126.637C248.326 127.608 249.035 129.101 249.802 131.081C251.332 135.035 253.059 140.849 254.873 148.1C258.5 162.598 262.464 182.797 265.905 205.259Z" stroke="#FEFCED" stroke-width="0.84"/>
<path d="M272.767 204.208C276.207 226.661 277.73 247.222 277.414 262.311C277.256 269.858 276.638 276.016 275.579 280.35C275.049 282.52 274.414 284.207 273.688 285.379C272.959 286.555 272.178 287.153 271.369 287.277C270.561 287.401 269.636 287.064 268.589 286.16C267.545 285.259 266.435 283.839 265.28 281.928C262.971 278.11 260.538 272.42 258.128 265.265C253.31 250.963 248.607 230.889 245.167 208.436C241.727 185.982 240.204 165.421 240.52 150.333C240.678 142.785 241.296 136.627 242.355 132.293C242.885 130.124 243.52 128.437 244.246 127.264C244.975 126.089 245.756 125.49 246.565 125.366C247.373 125.242 248.298 125.58 249.345 126.483C250.389 127.384 251.499 128.804 252.654 130.715C254.963 134.534 257.396 140.224 259.806 147.378C264.624 161.68 269.327 181.754 272.767 204.208Z" stroke="#FEFCED" stroke-width="0.84"/>
<path d="M279.63 203.157C283.069 225.602 283.795 246.273 282.197 261.544C281.398 269.183 280.019 275.446 278.122 279.9C276.215 284.378 273.841 286.899 271.125 287.315C268.409 287.731 265.389 286.037 262.228 282.335C259.085 278.653 255.895 273.09 252.845 266.041C246.748 251.948 241.253 232.008 237.815 209.563C234.376 187.118 233.65 166.447 235.248 151.176C236.047 143.537 237.426 137.273 239.323 132.82C241.23 128.342 243.604 125.82 246.32 125.404C249.036 124.988 252.056 126.683 255.216 130.385C258.36 134.066 261.55 139.63 264.6 146.679C270.696 160.771 276.192 180.712 279.63 203.157Z" stroke="#FEFCED" stroke-width="0.84"/>
<path d="M285.476 202.01C288.903 224.38 288.962 245.081 286.297 260.46C284.965 268.152 282.955 274.489 280.362 279.034C277.767 283.585 274.626 286.277 271.051 286.825C267.475 287.373 263.672 285.744 259.834 282.179C255.999 278.618 252.185 273.174 248.61 266.234C241.464 252.357 235.323 232.588 231.896 210.219C228.469 187.849 228.41 167.148 231.074 151.769C232.407 144.077 234.417 137.74 237.009 133.195C239.605 128.644 242.745 125.952 246.321 125.404C249.896 124.856 253.699 126.485 257.538 130.05C261.372 133.61 265.187 139.055 268.761 145.995C275.908 159.872 282.049 179.64 285.476 202.01Z" stroke="#FEFCED" stroke-width="0.84"/>
<path d="M292.828 200.883C296.254 223.244 295.518 244.055 291.574 259.621C289.602 267.404 286.834 273.855 283.4 278.532C279.967 283.206 275.89 286.083 271.295 286.787C266.7 287.491 261.949 285.967 257.275 282.534C252.598 279.1 248.025 273.774 243.813 266.938C235.391 253.266 228.458 233.63 225.033 211.269C221.607 188.909 222.343 168.098 226.286 152.532C228.258 144.748 231.027 138.297 234.461 133.621C237.893 128.946 241.97 126.07 246.565 125.366C251.161 124.662 255.912 126.186 260.586 129.618C265.263 133.052 269.836 138.379 274.047 145.215C282.47 158.886 289.402 178.523 292.828 200.883Z" stroke="#FEFCED" stroke-width="0.84"/>
<path d="M300.18 199.757C303.604 222.107 302.048 243.034 296.782 258.795C291.508 274.579 282.564 285.061 271.295 286.787C260.025 288.514 248.353 281.19 238.596 267.709C228.854 254.247 221.103 234.747 217.679 212.396C214.255 190.046 215.812 169.12 221.078 153.359C226.351 137.575 235.295 127.093 246.565 125.366C257.835 123.64 269.506 130.964 279.263 144.445C289.006 157.906 296.756 177.407 300.18 199.757Z" stroke="#FEFCED" stroke-width="0.84"/>
<path d="M309.494 198.329C312.916 220.666 310.293 241.743 303.309 257.761C296.322 273.784 285.002 284.686 271.05 286.824C257.097 288.961 243.032 281.948 231.569 268.751C220.11 255.559 211.297 236.233 207.876 213.897C204.454 191.561 207.076 170.484 214.06 154.466C221.047 138.443 232.367 127.541 246.32 125.403C260.272 123.266 274.337 130.279 285.8 143.475C297.26 156.667 306.072 175.993 309.494 198.329Z" stroke="#FEFCED" stroke-width="0.84"/>
<path d="M317.865 197.297C321.295 219.688 317.7 240.968 309.135 257.271C300.57 273.573 287.053 284.873 270.635 287.389C254.216 289.904 237.936 283.169 224.883 270.178C211.831 257.187 202.03 237.959 198.6 215.569C195.169 193.178 198.764 171.898 207.329 155.596C215.894 139.293 229.411 127.993 245.83 125.478C262.249 122.962 278.528 129.697 291.581 142.688C304.634 155.679 314.434 174.907 317.865 197.297Z" stroke="#FEFCED" stroke-width="0.84"/>
<path d="M333.023 194.726C339.856 239.332 311.965 280.556 270.804 286.862C229.643 293.168 190.69 262.184 183.857 217.578C177.023 172.972 204.914 131.747 246.075 125.442C287.236 119.136 326.189 150.119 333.023 194.726Z" stroke="#FEFCED" stroke-width="0.84"/>
<path d="M325.67 195.851C332.51 240.499 307.759 281.2 270.559 286.899C233.36 292.598 197.559 261.173 190.719 216.526C183.879 171.878 208.63 131.177 245.83 125.478C283.029 119.779 318.83 151.204 325.67 195.851Z" stroke="#FEFCED" stroke-width="0.84"/>
<path d="M257.34 198.967C279.801 195.526 300.26 193.262 315.179 192.382C322.641 191.942 328.705 191.849 332.936 192.125C335.055 192.264 336.692 192.494 337.808 192.81C338.368 192.969 338.773 193.142 339.037 193.32C339.303 193.499 339.38 193.647 339.396 193.748C339.411 193.848 339.382 194.013 339.182 194.263C338.982 194.512 338.649 194.798 338.162 195.117C337.191 195.754 335.698 196.463 333.718 197.229C329.764 198.76 323.95 200.486 316.699 202.3C302.201 205.927 282.002 209.892 259.54 213.333C237.079 216.774 216.62 219.038 201.701 219.918C194.239 220.358 188.175 220.451 183.944 220.175C181.825 220.036 180.189 219.806 179.072 219.49C178.512 219.331 178.107 219.158 177.843 218.98C177.577 218.801 177.5 218.653 177.485 218.552C177.469 218.452 177.498 218.287 177.698 218.037C177.898 217.788 178.231 217.502 178.718 217.183C179.689 216.547 181.182 215.837 183.162 215.071C187.117 213.54 192.93 211.814 200.181 210C214.68 206.373 234.878 202.408 257.34 198.967Z" stroke="#FEFCED" stroke-width="0.84"/>
<path d="M256.288 192.105C278.742 188.665 299.303 187.143 314.392 187.458C321.939 187.616 328.097 188.234 332.431 189.293C334.6 189.824 336.288 190.458 337.46 191.184C338.636 191.913 339.234 192.694 339.358 193.503C339.482 194.311 339.145 195.236 338.241 196.283C337.34 197.327 335.92 198.437 334.009 199.593C330.191 201.901 324.5 204.334 317.346 206.744C303.044 211.563 282.97 216.265 260.517 219.705C238.063 223.145 217.502 224.668 202.414 224.352C194.866 224.194 188.708 223.576 184.374 222.517C182.205 221.987 180.517 221.352 179.345 220.626C178.169 219.897 177.571 219.116 177.447 218.307C177.323 217.499 177.66 216.574 178.564 215.527C179.465 214.484 180.885 213.373 182.796 212.218C186.615 209.909 192.305 207.476 199.459 205.066C213.761 200.248 233.835 195.545 256.288 192.105Z" stroke="#FEFCED" stroke-width="0.84"/>
<path d="M255.237 185.243C277.682 181.804 298.353 181.078 313.625 182.676C321.263 183.476 327.527 184.854 331.98 186.751C336.459 188.659 338.98 191.032 339.396 193.749C339.812 196.465 338.117 199.484 334.415 202.645C330.734 205.788 325.17 208.979 318.121 212.028C304.029 218.125 284.088 223.62 261.643 227.059C239.199 230.497 218.528 231.224 203.256 229.626C195.617 228.826 189.354 227.448 184.9 225.551C180.422 223.643 177.901 221.27 177.485 218.553C177.069 215.837 178.764 212.817 182.465 209.657C186.147 206.514 191.71 203.323 198.76 200.274C212.852 194.177 232.792 188.682 255.237 185.243Z" stroke="#FEFCED" stroke-width="0.84"/>
<path d="M254.091 179.398C276.461 175.97 297.161 175.912 312.541 178.576C320.233 179.909 326.569 181.919 331.115 184.511C335.665 187.107 338.358 190.247 338.905 193.823C339.453 197.398 337.825 201.201 334.26 205.04C330.699 208.874 325.254 212.689 318.314 216.263C304.438 223.409 284.669 229.551 262.299 232.978C239.929 236.405 219.229 236.463 203.849 233.799C196.157 232.466 189.821 230.457 185.275 227.864C180.725 225.269 178.032 222.128 177.485 218.552C176.937 214.977 178.565 211.174 182.13 207.336C185.691 203.501 191.136 199.686 198.076 196.112C211.952 188.966 231.721 182.825 254.091 179.398Z" stroke="#FEFCED" stroke-width="0.84"/>
<path d="M252.964 172.045C275.325 168.619 296.136 169.355 311.702 173.299C319.485 175.271 325.937 178.039 330.613 181.473C335.287 184.906 338.164 188.983 338.868 193.578C339.572 198.173 338.048 202.924 334.615 207.599C331.181 212.275 325.855 216.848 319.019 221.06C305.347 229.482 285.711 236.415 263.351 239.84C240.99 243.266 220.179 242.53 204.613 238.587C196.83 236.615 190.378 233.846 185.702 230.412C181.027 226.98 178.151 222.903 177.447 218.308C176.743 213.712 178.267 208.961 181.699 204.287C185.133 199.611 190.46 195.037 197.296 190.826C210.967 182.403 230.604 175.471 252.964 172.045Z" stroke="#FEFCED" stroke-width="0.84"/>
<path d="M251.838 164.693C274.188 161.269 295.115 162.826 310.875 168.091C326.659 173.365 337.141 182.309 338.868 193.579C340.594 204.848 333.271 216.52 319.789 226.277C306.328 236.02 286.827 243.77 264.477 247.194C242.127 250.618 221.2 249.061 205.44 243.795C189.656 238.522 179.174 229.578 177.447 218.308C175.721 207.039 183.044 195.367 196.526 185.61C209.987 175.867 229.488 168.117 251.838 164.693Z" stroke="#FEFCED" stroke-width="0.84"/>
<path d="M250.411 155.379C272.747 151.958 293.825 154.58 309.842 161.564C325.866 168.551 336.768 179.871 338.905 193.824C341.043 207.776 334.03 221.841 320.833 233.304C307.641 244.764 288.315 253.576 265.979 256.998C243.643 260.42 222.565 257.797 206.547 250.813C190.524 243.826 179.622 232.506 177.485 218.553C175.347 204.601 182.36 190.536 195.557 179.073C208.749 167.614 228.075 158.801 250.411 155.379Z" stroke="#FEFCED" stroke-width="0.84"/>
<path d="M249.379 147.008C271.77 143.578 293.05 147.172 309.353 155.737C325.655 164.302 336.955 177.819 339.471 194.238C341.986 210.657 335.251 226.937 322.26 239.989C309.269 253.042 290.041 262.842 267.651 266.273C245.26 269.703 223.98 266.108 207.678 257.543C191.375 248.978 180.075 235.461 177.56 219.043C175.044 202.624 181.779 186.344 194.77 173.291C207.761 160.239 226.989 150.438 249.379 147.008Z" stroke="#FEFCED" stroke-width="0.84"/>
<path d="M246.806 131.85C291.413 125.016 332.637 152.907 338.943 194.068C345.249 235.229 314.265 274.182 269.659 281.016C225.052 287.849 183.828 259.959 177.522 218.798C171.216 177.637 202.2 138.683 246.806 131.85Z" stroke="#FEFCED" stroke-width="0.84"/>
<path d="M247.933 139.203C292.58 132.363 333.282 157.114 338.981 194.313C344.679 231.513 313.255 267.313 268.607 274.153C223.96 280.993 183.259 256.242 177.56 219.043C171.861 181.843 203.285 146.043 247.933 139.203Z" stroke="#FEFCED" stroke-width="0.84"/>
</svg>
