<svg width="146" height="154" viewBox="0 0 146 154" fill="none" xmlns="http://www.w3.org/2000/svg">
<path fill-rule="evenodd" clip-rule="evenodd" d="M32.1657 131.421C36.4065 134.359 41.3312 135.828 46.94 135.828C50.6336 135.828 54.0193 135.23 57.0973 134.034C60.1753 132.805 62.8942 131.148 65.2539 129.063C67.6479 126.945 69.6144 124.554 71.1534 121.889H71.769L69.6144 134.803H97.7266L115.168 29.8477H86.8511L80.1821 69.821H79.7717C79.1903 67.1561 78.0959 64.7133 76.4886 62.4925C74.8812 60.2376 72.7095 58.4439 69.9735 57.1115C67.2717 55.7449 63.9715 55.0616 60.0727 55.0616C54.8743 55.0616 49.6931 56.4453 44.5289 59.2127C39.3989 61.98 34.8504 66.3361 30.8832 72.2809C26.9502 78.2256 24.1972 85.9469 22.624 95.4449C21.1192 104.533 21.2731 112.066 23.0857 118.045C24.9325 124.024 27.9591 128.483 32.1657 131.421ZM65.1159 89.9014L64.4712 76.0298C64.368 73.8101 61.5307 72.9549 60.218 74.7477L51.9528 86.0363C51.3692 86.8334 50.4499 87.3158 49.4625 87.3432L36.5131 87.7029C34.2215 87.7666 33.3621 90.7341 35.2651 92.0124L45.918 99.1689C46.7606 99.735 47.2843 100.668 47.3289 101.682L47.9676 116.204C48.0666 118.457 50.969 119.296 52.2551 117.444L60.4902 105.588C61.074 104.747 62.0249 104.237 63.048 104.216L75.7031 103.948C77.986 103.9 78.8715 100.957 76.9944 99.6569L66.4889 92.3807C65.6698 91.8134 65.1621 90.8966 65.1159 89.9014Z" fill="#FEFCED"/>
<path d="M105.562 17.1349L107.012 26.2205C107.169 27.2043 106.858 28.2052 106.172 28.9271L100.519 34.8705C98.9452 36.525 100.41 39.2262 102.655 38.8094L110.616 37.3316C111.622 37.1448 112.657 37.4511 113.399 38.1554L120.334 44.7342C121.97 46.2858 124.641 44.8739 124.28 42.6485L122.737 33.1312C122.575 32.1292 122.898 31.1095 123.608 30.384L129.356 24.5104C130.959 22.8719 129.514 20.1411 127.258 20.5445L119.064 22.0095C118.092 22.1833 117.093 21.8978 116.36 21.236L109.466 15.0151C107.816 13.5265 105.212 14.9406 105.562 17.1349Z" fill="#C0FE1F"/>
</svg>
