<svg width="437" height="462" viewBox="0 0 437 462" fill="none" xmlns="http://www.w3.org/2000/svg">
<path fill-rule="evenodd" clip-rule="evenodd" d="M97.4165 394.662C110.139 403.477 124.913 407.884 141.739 407.884C152.82 407.884 162.977 406.09 172.211 402.503C181.445 398.813 189.602 393.842 196.681 387.59C203.863 381.235 209.763 374.06 214.38 366.066H216.226L209.763 404.809H294.099L346.425 89.9424H261.473L241.466 209.862H240.235C238.49 201.868 235.207 194.539 230.385 187.877C225.563 181.112 219.048 175.731 210.84 171.734C202.735 167.634 192.834 165.584 181.137 165.584C165.542 165.584 149.999 169.735 134.506 178.037C119.116 186.34 105.471 199.408 93.5691 217.242C81.7702 235.076 73.5109 258.24 68.7914 286.734C64.277 313.998 64.7387 336.598 70.1764 354.535C75.7168 372.472 84.7968 385.847 97.4165 394.662ZM196.267 270.104L194.333 228.489C194.024 221.83 185.512 219.264 181.574 224.643L156.778 258.509C155.027 260.9 152.269 262.347 149.307 262.43L110.459 263.509C103.584 263.7 101.006 272.602 106.715 276.437L138.674 297.907C141.201 299.605 142.772 302.403 142.906 305.445L144.822 349.012C145.12 355.769 153.827 358.288 157.685 352.733L182.39 317.163C184.142 314.642 186.994 313.111 190.064 313.046L228.029 312.244C234.878 312.099 237.534 303.271 231.903 299.371L200.386 277.542C197.929 275.84 196.406 273.09 196.267 270.104Z" fill="#191816"/>
<path d="M317.606 51.8052L321.955 79.0617C322.426 82.0134 321.494 85.016 319.434 87.1818L302.476 105.012C297.755 109.975 302.15 118.079 308.885 116.829L332.767 112.395C335.785 111.835 338.889 112.754 341.117 114.866L361.922 134.603C366.829 139.258 374.843 135.022 373.76 128.346L369.131 99.7941C368.643 96.7879 369.613 93.729 371.743 91.5524L388.986 73.9316C393.796 69.0161 389.462 60.8236 382.692 62.034L358.111 66.4288C355.194 66.9504 352.2 66.0938 349.999 64.1085L329.317 45.4457C324.368 40.9799 316.555 45.2223 317.606 51.8052Z" fill="#7B41F5"/>
</svg>
