<svg width="77" height="58" viewBox="0 0 77 58" fill="none" xmlns="http://www.w3.org/2000/svg">
<path d="M12.0688 57.2069L14.6033 44.7759L44.5344 17.3793H21.362L24.9826 0L76.9999 0L74.3447 12.7931L45.2585 39.8276H69.3964L65.7758 57.2069H12.0688Z" fill="#23231F"/>
<path d="M9.41382 57.2069L11.9483 44.7759L41.8793 17.3793H18.7069L22.3276 0L74.3449 0L71.6897 12.7931L42.6035 39.8276H66.7414L63.1207 57.2069H9.41382Z" fill="#525148"/>
<path d="M6.51721 57.2069L9.0517 44.7759L38.9827 17.3793H15.8103L19.431 0L71.4483 0L68.7931 12.7931L39.7069 39.8276H63.8448L60.2241 57.2069H6.51721Z" fill="#858376"/>
<path d="M3.37939 57.2069L5.91388 44.7759L35.8449 17.3793H12.6725L16.2932 0L68.3104 0L65.6553 12.7931L36.5691 39.8276H60.707L57.0863 57.2069H3.37939Z" fill="#CFCDBC"/>
<path d="M0 57.2069L2.53448 44.7759L32.4655 17.3793H5.18966L8.81035 0L64.931 0L62.2759 12.7931L33.1897 39.8276H57.3276L53.7069 57.2069H0Z" fill="#FEFCED"/>
</svg>
