<svg width="531" height="458" viewBox="0 0 531 458" fill="none" xmlns="http://www.w3.org/2000/svg">
<path d="M494.624 5H15L225.824 163.118L36.0824 447.729L478.812 453L302.394 288.725L494.624 5ZM494.624 5L360.224 84.0588" stroke="#191816" stroke-width="9.49858"/>
<mask id="path-2-outside-1_1495_7" maskUnits="userSpaceOnUse" x="20.4528" y="116.724" width="511" height="208" fill="black">
<rect fill="white" x="20.4528" y="116.724" width="511" height="208"/>
<path fill-rule="evenodd" clip-rule="evenodd" d="M299.358 289.906C434.911 253.439 534.349 193.067 521.458 155.063C508.567 117.058 388.23 115.813 252.677 152.28C117.124 188.748 17.6864 249.12 30.5772 287.124C43.4679 325.129 163.805 326.374 299.358 289.906ZM293.408 283.196C422.184 248.552 513.074 190.361 502.009 157.738C490.943 125.115 356.144 130.026 227.369 164.671C98.5935 199.315 25.522 252.944 36.5874 285.567C47.6529 318.19 164.633 317.841 293.408 283.196Z"/>
</mask>
<path fill-rule="evenodd" clip-rule="evenodd" d="M299.358 289.906C434.911 253.439 534.349 193.067 521.458 155.063C508.567 117.058 388.23 115.813 252.677 152.28C117.124 188.748 17.6864 249.12 30.5772 287.124C43.4679 325.129 163.805 326.374 299.358 289.906ZM293.408 283.196C422.184 248.552 513.074 190.361 502.009 157.738C490.943 125.115 356.144 130.026 227.369 164.671C98.5935 199.315 25.522 252.944 36.5874 285.567C47.6529 318.19 164.633 317.841 293.408 283.196Z" fill="#ECEADC"/>
<path d="M521.458 155.063L513.704 157.693L513.704 157.693L521.458 155.063ZM299.358 289.906L301.486 297.814L301.486 297.814L299.358 289.906ZM252.677 152.28L254.804 160.188L252.677 152.28ZM30.5772 287.124L38.3317 284.494L38.3317 284.494L30.5772 287.124ZM502.009 157.738L509.763 155.107L509.763 155.107L502.009 157.738ZM293.408 283.196L295.536 291.104L295.536 291.104L293.408 283.196ZM227.369 164.671L229.496 172.578L227.369 164.671ZM36.5874 285.567L28.8329 288.197L28.8329 288.197L36.5874 285.567ZM513.704 157.693C515.544 163.119 513.946 170.998 504.96 181.8C496.156 192.385 481.558 204.081 461.825 216.061C422.473 239.954 364.494 263.904 297.231 281.999L301.486 297.814C369.776 279.442 429.293 254.972 470.324 230.06C490.784 217.639 507.1 204.837 517.551 192.273C527.82 179.928 533.818 166.009 529.213 152.432L513.704 157.693ZM254.804 160.188C322.056 142.095 385.268 133.439 432.981 133.932C456.889 134.18 476.462 136.723 490.578 141.262C505.067 145.921 511.765 151.978 513.704 157.693L529.213 152.432C524.706 139.145 511.527 130.795 495.591 125.671C479.283 120.427 457.883 117.812 433.151 117.556C383.584 117.043 318.85 125.998 250.55 144.373L254.804 160.188ZM38.3317 284.494C36.4912 279.068 38.0894 271.189 47.075 260.387C55.8794 249.802 70.4774 238.106 90.2101 226.126C129.563 202.233 187.542 178.283 254.804 160.188L250.55 144.373C182.259 162.745 122.743 187.215 81.711 212.127C61.2516 224.548 44.9353 237.35 34.4846 249.914C24.2152 262.259 18.2178 276.178 22.8227 289.755L38.3317 284.494ZM297.231 281.999C229.979 300.092 166.768 308.748 119.054 308.254C95.1465 308.007 75.5735 305.464 61.4569 300.925C46.9681 296.266 40.2702 290.209 38.3317 284.494L22.8227 289.755C27.3295 303.042 40.5078 311.392 56.4439 316.516C72.7521 321.759 94.1526 324.374 118.885 324.63C168.451 325.143 233.185 316.189 301.486 297.814L297.231 281.999ZM494.254 160.368C495.576 164.266 494.43 170.933 485.947 180.935C477.762 190.586 464.228 201.47 445.868 212.728C409.258 235.178 355.11 258.117 291.281 275.289L295.536 291.104C360.482 273.631 416.167 250.152 454.429 226.689C473.506 214.992 488.668 203.046 498.437 191.528C507.908 180.361 513.974 167.521 509.763 155.107L494.254 160.368ZM229.496 172.578C293.364 155.395 358.62 145.623 409.067 144.164C434.345 143.433 455.499 144.803 470.768 148.181C478.414 149.873 484.189 151.985 488.181 154.318C492.186 156.659 493.727 158.813 494.254 160.368L509.763 155.107C507.524 148.506 502.432 143.678 496.444 140.179C490.443 136.671 482.865 134.085 474.306 132.191C457.163 128.398 434.495 127.045 408.593 127.794C356.681 129.296 290.149 139.301 225.242 156.763L229.496 172.578ZM44.3419 282.937C42.7869 278.352 43.702 271.693 50.2669 262.568C56.7701 253.528 67.9986 243.327 84.0553 232.706C116.083 211.522 165.658 189.752 229.496 172.578L225.242 156.763C160.304 174.233 108.956 196.6 75.0204 219.047C58.0955 230.242 45.0824 241.731 36.9726 253.004C28.9245 264.192 24.8552 276.47 28.8329 288.197L44.3419 282.937ZM291.281 275.289C227.41 292.472 166.677 301.085 120.797 301.419C97.8026 301.586 78.9624 299.668 65.4544 295.938C51.3093 292.032 45.6928 286.919 44.3419 282.937L28.8329 288.197C33.0147 300.526 46.1703 307.603 61.0954 311.724C76.6576 316.021 97.1856 317.968 120.916 317.795C168.486 317.449 230.632 308.565 295.536 291.104L291.281 275.289Z" fill="#ECEADC" mask="url(#path-2-outside-1_1495_7)"/>
<mask id="path-4-inside-2_1495_7" fill="white">
<path fill-rule="evenodd" clip-rule="evenodd" d="M290.299 289.907C425.852 253.439 525.29 193.067 512.399 155.063C499.508 117.058 379.171 115.813 243.618 152.281C108.065 188.748 8.62738 249.12 21.5181 287.124C34.4089 325.129 154.746 326.374 290.299 289.907ZM284.349 283.197C413.125 248.552 504.015 190.361 492.95 157.738C481.884 125.115 347.085 130.026 218.31 164.671C89.5345 199.315 16.463 252.944 27.5284 285.567C38.5938 318.19 155.574 317.841 284.349 283.197Z"/>
</mask>
<path fill-rule="evenodd" clip-rule="evenodd" d="M290.299 289.907C425.852 253.439 525.29 193.067 512.399 155.063C499.508 117.058 379.171 115.813 243.618 152.281C108.065 188.748 8.62738 249.12 21.5181 287.124C34.4089 325.129 154.746 326.374 290.299 289.907ZM284.349 283.197C413.125 248.552 504.015 190.361 492.95 157.738C481.884 125.115 347.085 130.026 218.31 164.671C89.5345 199.315 16.463 252.944 27.5284 285.567C38.5938 318.19 155.574 317.841 284.349 283.197Z" fill="#191816"/>
<path d="M512.399 155.063L517.052 153.485L517.052 153.485L512.399 155.063ZM243.618 152.281L242.341 147.536L243.618 152.281ZM21.5181 287.124L16.8654 288.703L16.8654 288.703L21.5181 287.124ZM492.95 157.738L488.297 159.316L492.95 157.738ZM284.349 283.197L283.073 278.452L284.349 283.197ZM218.31 164.671L217.034 159.926L217.034 159.926L218.31 164.671ZM27.5284 285.567L22.8757 287.145L22.8757 287.145L27.5284 285.567ZM507.746 156.641C510.14 163.697 507.662 172.784 498.419 183.895C489.286 194.875 474.344 206.793 454.466 218.861C414.778 242.957 356.491 267.011 289.023 285.162L291.576 294.651C359.661 276.334 418.87 251.968 459.565 227.26C479.88 214.927 495.852 202.347 505.974 190.179C515.986 178.142 521.104 165.431 517.052 153.485L507.746 156.641ZM244.894 157.025C312.356 138.876 375.872 130.16 423.956 130.657C448.029 130.907 467.967 133.464 482.522 138.144C497.3 142.896 505.294 149.411 507.746 156.641L517.052 153.485C513.059 141.712 501.176 133.82 485.53 128.789C469.66 123.687 448.625 121.086 424.058 120.832C374.862 120.323 310.432 129.218 242.341 147.536L244.894 157.025ZM26.1708 285.546C23.7775 278.49 26.2556 269.403 35.4979 258.292C44.6315 247.312 59.5732 235.394 79.4513 223.326C119.14 199.23 177.426 175.176 244.894 157.025L242.341 147.536C174.257 165.853 115.048 190.219 74.3518 214.927C54.0377 227.26 38.0651 239.841 27.9437 252.008C17.931 264.045 12.8134 276.756 16.8654 288.703L26.1708 285.546ZM289.023 285.162C221.561 303.311 158.045 312.027 109.961 311.53C85.8887 311.281 65.9502 308.723 51.3953 304.043C36.617 299.292 28.623 292.776 26.1708 285.546L16.8654 288.703C20.8586 300.475 32.7408 308.367 48.3875 313.398C64.2574 318.5 85.2923 321.101 109.86 321.355C159.055 321.865 223.485 312.969 291.576 294.651L289.023 285.162ZM488.297 159.316C490.197 164.917 488.067 172.819 479.386 183.054C470.884 193.078 457.025 204.174 438.521 215.521C401.581 238.173 347.126 261.22 283.073 278.452L285.626 287.941C350.349 270.528 405.726 247.157 443.658 223.897C462.591 212.288 477.428 200.554 486.88 189.409C496.153 178.476 501.235 166.87 497.602 156.16L488.297 159.316ZM219.586 169.415C283.662 152.177 349.173 142.358 399.913 140.89C425.316 140.155 446.773 141.522 462.416 144.983C470.245 146.716 476.381 148.922 480.774 151.49C485.176 154.063 487.427 156.752 488.297 159.316L497.602 156.16C495.706 150.568 491.324 146.274 485.733 143.007C480.133 139.734 472.916 137.243 464.539 135.389C447.772 131.679 425.406 130.322 399.629 131.068C348.01 132.561 281.733 142.52 217.034 159.926L219.586 169.415ZM32.1811 283.989C30.1416 277.976 31.6875 270.193 38.549 260.655C45.3735 251.168 56.9589 240.71 73.1893 229.975C105.598 208.538 155.528 186.649 219.586 169.415L217.034 159.926C152.316 177.337 101.323 199.585 67.7684 221.779C51.0171 232.859 38.3609 244.09 30.5724 254.917C22.821 265.692 19.3825 276.847 22.8757 287.145L32.1811 283.989ZM283.073 278.452C218.995 295.691 157.98 304.358 111.762 304.694C88.6202 304.862 69.4424 302.939 55.5236 299.095C41.2225 295.146 34.0982 289.641 32.1811 283.989L22.8757 287.145C26.4913 297.805 38.1391 304.489 52.9082 308.567C68.0595 312.751 88.25 314.692 111.833 314.52C159.066 314.176 220.928 305.346 285.626 287.941L283.073 278.452Z" fill="#191816" mask="url(#path-4-inside-2_1495_7)"/>
<path d="M494.623 5H141.494L25.541 136.765H283.8C309.099 140.981 306.639 161.361 299.612 173.659L25.541 453H378.67L494.623 326.506H231.094C205.795 322.289 213.525 300.153 220.553 289.612L494.623 5Z" fill="#191816"/>
</svg>
