<svg width="892" height="776" viewBox="0 0 892 776" fill="none" xmlns="http://www.w3.org/2000/svg">
<path d="M835.071 5H15L375.471 275.353L51.0471 761.988L808.035 771L506.392 490.119L835.071 5ZM835.071 5L605.271 140.176" stroke="#FEFCED" stroke-width="9.49858"/>
<mask id="path-2-outside-1_1495_7" maskUnits="userSpaceOnUse" x="30.7117" y="202.417" width="861" height="344" fill="black">
<rect fill="white" x="30.7117" y="202.417" width="861" height="344"/>
<path fill-rule="evenodd" clip-rule="evenodd" d="M501.202 492.139C732.974 429.786 902.994 326.561 880.953 261.58C858.912 196.6 653.156 194.47 421.385 256.823C189.613 319.177 19.5932 422.401 41.6341 487.382C63.675 552.363 269.431 554.493 501.202 492.139ZM491.029 480.666C711.212 421.43 866.618 321.933 847.698 266.154C828.778 210.374 598.296 218.772 378.113 278.008C157.93 337.244 32.9908 428.94 51.9107 484.719C70.8306 540.499 270.846 539.902 491.029 480.666Z"/>
</mask>
<path fill-rule="evenodd" clip-rule="evenodd" d="M501.202 492.139C732.974 429.786 902.994 326.561 880.953 261.58C858.912 196.6 653.156 194.47 421.385 256.823C189.613 319.177 19.5932 422.401 41.6341 487.382C63.675 552.363 269.431 554.493 501.202 492.139ZM491.029 480.666C711.212 421.43 866.618 321.933 847.698 266.154C828.778 210.374 598.296 218.772 378.113 278.008C157.93 337.244 32.9908 428.94 51.9107 484.719C70.8306 540.499 270.846 539.902 491.029 480.666Z" fill="#191816"/>
<path d="M880.953 261.58L888.707 258.95L880.953 261.58ZM501.202 492.139L503.329 500.046L503.329 500.046L501.202 492.139ZM421.385 256.823L423.512 264.73L423.512 264.73L421.385 256.823ZM41.6341 487.382L49.3886 484.752L49.3886 484.752L41.6341 487.382ZM847.698 266.154L855.452 263.524L847.698 266.154ZM491.029 480.666L493.156 488.573L493.156 488.573L491.029 480.666ZM378.113 278.008L380.24 285.915L380.24 285.915L378.113 278.008ZM51.9107 484.719L44.1562 487.349L44.1562 487.349L51.9107 484.719ZM873.198 264.21C877.326 276.381 873.032 291.996 857.213 311.014C841.575 329.814 816.005 350.205 782.008 370.845C714.126 412.059 614.447 453.193 499.075 484.232L503.329 500.046C619.729 468.731 720.946 427.077 790.507 384.844C825.231 363.762 852.519 342.266 869.803 321.487C886.907 300.926 895.6 279.27 888.707 258.95L873.198 264.21ZM423.512 264.73C538.874 233.695 647.494 218.788 729.733 219.639C770.904 220.066 805.019 224.439 829.933 232.45C855.22 240.581 868.972 251.751 873.198 264.21L888.707 258.95C881.913 238.919 861.68 225.455 834.946 216.859C807.84 208.144 771.898 203.698 729.903 203.263C645.811 202.393 535.668 217.598 419.258 248.916L423.512 264.73ZM49.3886 484.752C45.2606 472.582 49.5546 456.966 65.374 437.948C81.0122 419.149 106.582 398.758 140.579 378.117C208.461 336.904 308.14 295.769 423.512 264.73L419.258 248.916C302.858 280.231 201.641 321.885 132.08 364.118C97.3563 385.2 70.0681 406.696 52.7836 427.475C35.6803 448.037 26.9872 469.692 33.8796 490.012L49.3886 484.752ZM499.075 484.232C383.713 515.268 275.093 530.174 192.854 529.323C151.683 528.897 117.568 524.523 92.6537 516.512C67.3669 508.382 53.6147 497.211 49.3886 484.752L33.8796 490.012C40.674 510.043 60.9066 523.507 87.6408 532.103C114.747 540.819 150.689 545.264 192.684 545.699C276.776 546.569 386.919 531.364 503.329 500.046L499.075 484.232ZM839.943 268.784C843.229 278.471 839.524 292.062 824.668 309.577C810.111 326.741 786.393 345.727 754.746 365.133C691.563 403.878 598.434 443.291 488.901 472.759L493.156 488.573C603.806 458.805 698.472 418.852 763.307 379.094C795.67 359.249 821.017 339.201 837.158 320.17C853.001 301.49 861.626 281.727 855.452 263.524L839.943 268.784ZM380.24 285.915C489.812 256.437 601.84 239.646 688.616 237.135C732.059 235.879 768.766 238.215 795.537 244.139C808.935 247.104 819.45 250.883 826.987 255.288C834.539 259.702 838.434 264.335 839.943 268.784L855.452 263.524C852.231 254.028 844.785 246.722 835.251 241.149C825.703 235.569 813.387 231.316 799.076 228.149C770.43 221.811 732.208 219.491 688.142 220.765C599.901 223.318 486.597 240.343 375.986 270.101L380.24 285.915ZM59.6652 482.089C56.1466 471.715 58.8307 458.336 70.5819 442C82.2713 425.751 102.103 407.853 129.866 389.489C185.304 352.82 270.698 315.385 380.24 285.915L375.986 270.101C265.345 299.867 178.178 337.898 120.831 375.83C92.2004 394.768 70.5837 413.954 57.2876 432.437C44.0532 450.834 38.2148 469.833 44.1562 487.349L59.6652 482.089ZM488.901 472.759C379.326 502.238 274.983 517.06 195.937 517.635C156.359 517.923 123.546 514.634 99.721 508.055C75.2586 501.3 62.9797 491.861 59.6652 482.089L44.1562 487.349C50.3016 505.467 70.1196 516.871 95.362 523.841C121.241 530.987 155.742 534.305 196.056 534.012C276.792 533.424 382.548 518.33 493.156 488.573L488.901 472.759Z" fill="#191816" mask="url(#path-2-outside-1_1495_7)"/>
<mask id="path-4-inside-2_1495_7" fill="white">
<path fill-rule="evenodd" clip-rule="evenodd" d="M485.713 492.14C717.484 429.786 887.505 326.561 865.464 261.581C843.423 196.6 637.667 194.47 405.896 256.824C174.124 319.177 4.10392 422.402 26.1448 487.383C48.1857 552.363 253.941 554.493 485.713 492.14ZM475.539 480.666C695.722 421.431 851.128 321.934 832.208 266.154C813.288 210.375 582.806 218.773 362.624 278.009C142.441 337.244 17.5013 428.94 36.4212 484.719C55.3412 540.499 255.356 539.902 475.539 480.666Z"/>
</mask>
<path fill-rule="evenodd" clip-rule="evenodd" d="M485.713 492.14C717.484 429.786 887.505 326.561 865.464 261.581C843.423 196.6 637.667 194.47 405.896 256.824C174.124 319.177 4.10392 422.402 26.1448 487.383C48.1857 552.363 253.941 554.493 485.713 492.14ZM475.539 480.666C695.722 421.431 851.128 321.934 832.208 266.154C813.288 210.375 582.806 218.773 362.624 278.009C142.441 337.244 17.5013 428.94 36.4212 484.719C55.3412 540.499 255.356 539.902 475.539 480.666Z" fill="#FEFCED"/>
<path d="M865.464 261.581L860.811 263.159L860.811 263.159L865.464 261.581ZM485.713 492.14L486.989 496.884L486.989 496.884L485.713 492.14ZM26.1448 487.383L30.7975 485.804L30.7975 485.804L26.1448 487.383ZM832.208 266.154L836.861 264.576L832.208 266.154ZM475.539 480.666L474.263 475.922L474.263 475.922L475.539 480.666ZM362.624 278.009L363.9 282.753L363.9 282.753L362.624 278.009ZM860.811 263.159C865.492 276.959 860.318 293.782 844.242 313.109C828.274 332.305 802.361 352.917 768.218 373.646C700 415.063 600.014 456.301 484.436 487.395L486.989 496.884C603.183 465.624 704.092 424.074 773.318 382.045C807.896 361.051 834.841 339.776 851.796 319.393C868.642 299.14 876.456 278.693 870.116 260.003L860.811 263.159ZM407.172 261.568C522.743 230.476 631.668 215.51 714.278 216.365C755.613 216.793 790.094 221.181 815.447 229.332C841.023 237.556 856.071 249.185 860.811 263.159L870.116 260.003C863.836 241.486 844.899 228.481 818.454 219.978C791.786 211.403 756.209 206.972 714.379 206.539C630.658 205.673 520.819 220.818 404.619 252.079L407.172 261.568ZM30.7975 485.804C26.1166 472.004 31.2905 455.181 47.3666 435.854C63.3341 416.659 89.2476 396.047 123.39 375.318C191.608 333.9 291.595 292.662 407.172 261.568L404.619 252.079C288.425 283.339 187.516 324.89 118.291 366.918C83.7121 387.912 56.7676 409.187 39.8124 429.571C22.9659 449.823 15.1526 470.27 21.4921 488.961L30.7975 485.804ZM484.436 487.395C368.865 518.487 259.94 533.454 177.331 532.599C135.995 532.171 101.515 527.783 76.1619 519.631C50.5855 511.407 35.5372 499.778 30.7975 485.804L21.4921 488.961C27.7729 507.477 46.7093 520.482 73.1541 528.985C99.8221 537.56 135.399 541.991 177.229 542.424C260.95 543.291 370.789 528.145 486.989 496.884L484.436 487.395ZM827.556 267.732C831.419 279.123 826.73 293.948 811.677 311.696C796.803 329.233 772.759 348.432 740.969 367.926C677.455 406.873 584.019 446.394 474.263 475.922L476.816 485.411C587.242 455.703 681.601 415.857 746.106 376.303C778.325 356.545 803.347 336.709 819.171 318.052C834.816 299.605 842.458 281.076 836.861 264.576L827.556 267.732ZM363.9 282.753C473.68 253.219 585.963 236.381 673.032 233.862C716.599 232.601 753.609 234.935 780.756 240.942C794.336 243.947 805.211 247.821 813.151 252.461C821.099 257.106 825.704 262.274 827.556 267.732L836.861 264.576C833.983 256.09 827.246 249.318 818.109 243.978C808.963 238.632 797.007 234.474 782.879 231.348C754.608 225.092 716.688 222.769 672.747 224.04C584.8 226.584 471.75 243.562 361.347 273.264L363.9 282.753ZM41.0739 483.141C37.0708 471.339 40.3857 456.836 52.4336 440.088C64.4444 423.392 84.6334 405.236 112.569 386.758C168.389 349.836 254.138 312.282 363.9 282.753L361.347 273.264C250.926 302.971 164.114 340.883 107.148 378.562C78.6916 397.385 57.4318 416.314 44.457 434.35C31.5192 452.334 26.3117 470.21 31.7686 486.298L41.0739 483.141ZM474.263 475.922C364.481 505.457 259.855 520.333 180.471 520.911C140.746 521.2 107.596 517.905 83.3598 511.212C58.7414 504.414 44.9547 494.582 41.0739 483.141L31.7686 486.298C37.3478 502.746 55.658 513.757 80.7444 520.684C106.213 527.717 140.376 531.029 180.542 530.737C260.941 530.152 366.414 515.112 476.816 485.411L474.263 475.922Z" fill="#FEFCED" mask="url(#path-4-inside-2_1495_7)"/>
<path d="M835.07 5H231.282L33.0232 230.294H474.6C517.856 237.504 513.651 272.349 501.635 293.376L33.0232 771H636.811L835.07 554.718H384.482C341.226 547.508 354.443 509.659 366.459 491.635L835.07 5Z" fill="#FEFCED"/>
</svg>
