<svg width="153" height="146" viewBox="0 0 153 146" fill="none" xmlns="http://www.w3.org/2000/svg">
<rect y="46.272" width="80.64" height="114.24" rx="7.392" transform="rotate(-35.0162 0 46.272)" fill="#858376"/>
<circle cx="67.3667" cy="70.0542" r="32.76" transform="rotate(-35.02 67.3667 70.0542)" stroke="#191816" stroke-width="0.336"/>
<path d="M48.8608 43.2988L86.3116 96.7444" stroke="#191816" stroke-width="0.336"/>
<path d="M94.3333 51.1577L40.4004 88.95" stroke="#191816" stroke-width="0.336"/>
<path d="M69.8281 68.329C75.0442 75.7727 79.4833 82.7073 82.4439 87.9007C83.9246 90.4983 85.033 92.6559 85.6839 94.222C86.01 95.0063 86.2177 95.634 86.3023 96.0906C86.3447 96.3195 86.3541 96.4952 86.3373 96.6216C86.3204 96.7486 86.2808 96.8025 86.2475 96.8258C86.2142 96.8491 86.1501 96.868 86.0249 96.8405C85.9004 96.8131 85.7384 96.7443 85.5377 96.6263C85.1374 96.391 84.6184 95.9814 83.9924 95.4072C82.7426 94.2608 81.093 92.4825 79.1569 90.204C75.2861 85.6484 70.2834 79.1087 65.0674 71.665C59.8514 64.2213 55.4122 57.2867 52.4517 52.0932C50.9709 49.4957 49.8626 47.3381 49.2116 45.772C48.8856 44.9877 48.6778 44.36 48.5933 43.9034C48.5509 43.6745 48.5415 43.4987 48.5583 43.3723C48.5752 43.2453 48.6148 43.1914 48.6481 43.1681C48.6813 43.1448 48.7455 43.126 48.8706 43.1534C48.9952 43.1808 49.1572 43.2496 49.3579 43.3676C49.7582 43.603 50.2772 44.0125 50.9031 44.5867C52.1529 45.7332 53.8026 47.5114 55.7386 49.79C59.6095 54.3456 64.6121 60.8853 69.8281 68.329Z" stroke="#191816" stroke-width="0.336"/>
<path d="M72.1024 66.7355C77.3167 74.1766 81.5079 81.2792 84.0697 86.7454C85.3511 89.4798 86.2213 91.7972 86.61 93.5391C86.8045 94.4109 86.876 95.1284 86.8235 95.6775C86.7707 96.2282 86.5966 96.5814 86.3288 96.7691C86.0609 96.9568 85.6695 96.9999 85.1339 96.8614C84.5998 96.7234 83.9498 96.4112 83.1968 95.9308C81.6922 94.9709 79.811 93.3619 77.6784 91.224C73.415 86.9501 68.1698 80.5861 62.9556 73.1449C57.7414 65.7038 53.5501 58.6012 50.9884 53.135C49.7069 50.4007 48.8367 48.0833 48.4481 46.3413C48.2536 45.4695 48.182 44.752 48.2346 44.2029C48.2873 43.6522 48.4614 43.2991 48.7293 43.1114C48.9972 42.9237 49.3885 42.8806 49.9242 43.019C50.4582 43.157 51.1082 43.4692 51.8612 43.9496C53.3659 44.9096 55.247 46.5186 57.3797 48.6565C61.643 52.9303 66.8882 59.2943 72.1024 66.7355Z" stroke="#191816" stroke-width="0.336"/>
<path d="M74.3769 65.1419C79.5892 72.5802 83.5144 79.8633 85.6488 85.6223C86.7165 88.5031 87.3326 90.9933 87.4421 92.9265C87.5521 94.8704 87.1479 96.1953 86.2477 96.826C85.3476 97.4568 83.9644 97.3845 82.1748 96.6175C80.395 95.8547 78.2647 94.4255 75.9215 92.4386C71.237 88.4664 65.7313 82.2908 60.5191 74.8525C55.3068 67.4141 51.3816 60.1311 49.2472 54.372C48.1795 51.4913 47.5634 49.001 47.4539 47.0678C47.3439 45.1239 47.7481 43.7991 48.6483 43.1683C49.5484 42.5375 50.9316 42.6099 52.7212 43.3769C54.501 44.1396 56.6313 45.5688 58.9745 47.5558C63.659 51.5279 69.1647 57.7036 74.3769 65.1419Z" stroke="#191816" stroke-width="0.336"/>
<path d="M76.2693 63.6944C81.4641 71.1078 85.1552 78.5199 86.9264 84.5068C87.8123 87.5011 88.2152 90.1296 88.0914 92.2191C87.9676 94.3108 87.3188 95.833 86.1338 96.6633C84.9488 97.4937 83.2967 97.5838 81.2883 96.9862C79.282 96.3893 76.949 95.1134 74.4369 93.2585C69.4143 89.55 63.7075 83.5504 58.5127 76.137C53.3179 68.7235 49.6268 61.3115 47.8556 55.3246C46.9697 52.3303 46.5668 49.7018 46.6906 47.6123C46.8144 45.5205 47.4632 43.9984 48.6482 43.168C49.8332 42.3377 51.4853 42.2475 53.4937 42.8451C55.5 43.4421 57.833 44.718 60.3451 46.5728C65.3677 50.2814 71.0745 56.281 76.2693 63.6944Z" stroke="#191816" stroke-width="0.336"/>
<path d="M78.7061 61.987C83.8987 69.3973 87.3245 76.99 88.6702 83.2704C89.3431 86.4109 89.4941 89.215 89.0919 91.5006C88.6899 93.7853 87.738 95.5394 86.2151 96.6065C84.6923 97.6736 82.7186 97.9695 80.4339 97.5675C78.1483 97.1653 75.5642 96.0662 72.842 94.3616C67.3983 90.9529 61.4311 85.141 56.2385 77.7307C51.0459 70.3204 47.6201 62.7277 46.2745 56.4473C45.6016 53.3068 45.4506 50.5027 45.8528 48.2171C46.2548 45.9325 47.2066 44.1784 48.7295 43.1112C50.2524 42.0441 52.2261 41.7482 54.5107 42.1503C56.7963 42.5525 59.3804 43.6516 62.1026 45.3561C67.5464 48.7649 73.5135 54.5767 78.7061 61.987Z" stroke="#191816" stroke-width="0.336"/>
<path d="M81.1431 60.2796C86.3333 67.6865 89.4851 75.466 90.3913 82.0507C91.2987 88.6453 89.9501 93.9895 86.2154 96.6065C82.4806 99.2236 76.997 98.6669 71.1084 95.5628C65.2285 92.4633 58.9922 86.8451 53.802 79.4382C48.6118 72.0313 45.4599 64.2518 44.5538 57.6671C43.6463 51.0725 44.995 45.7283 48.7297 43.1113C52.4645 40.4942 57.948 41.0509 63.8367 44.155C69.7165 47.2545 75.9529 52.8727 81.1431 60.2796Z" stroke="#191816" stroke-width="0.336"/>
<path d="M84.2293 58.117C89.4162 65.5192 92.2128 73.5419 92.5483 80.5235C92.8839 87.5076 90.7577 93.4236 86.1338 96.6637C81.5099 99.9037 75.2235 99.8827 68.7735 97.1831C62.3258 94.4846 55.7397 89.1173 50.5527 81.7151C45.3658 74.3129 42.5692 66.2902 42.2337 59.3086C41.8982 52.3245 44.0243 46.4085 48.6482 43.1684C53.2721 39.9283 59.5585 39.9494 66.0086 42.6489C72.4563 45.3475 79.0423 50.7148 84.2293 58.117Z" stroke="#191816" stroke-width="0.336"/>
<path d="M87.0477 56.2628C92.2472 63.683 94.731 71.9507 94.5504 79.3147C94.3697 86.6788 91.5263 93.1269 86.0851 96.9397C80.6438 100.753 73.6124 101.224 66.629 98.88C59.6457 96.536 52.7225 91.3791 47.523 83.9589C42.3234 76.5387 39.8396 68.271 40.0203 60.907C40.201 53.543 43.0444 47.0948 48.4856 43.282C53.9268 39.4692 60.9583 38.9978 67.9417 41.3418C74.925 43.6857 81.8481 48.8426 87.0477 56.2628Z" stroke="#191816" stroke-width="0.336"/>
<path d="M92.0268 52.6529C102.385 67.4356 99.6935 87.1619 86.0526 96.7204C72.4118 106.279 52.9514 102.075 42.5928 87.2927C32.2341 72.51 34.9261 52.7837 48.567 43.2252C62.2079 33.6666 81.6682 37.8702 92.0268 52.6529Z" stroke="#191816" stroke-width="0.336"/>
<path d="M89.5902 54.3603C99.9584 69.1566 98.2995 88.1387 85.9715 96.7773C73.6435 105.416 55.2354 100.495 44.8672 85.699C34.499 70.9027 36.1579 51.9206 48.4859 43.282C60.8139 34.6434 79.2221 39.564 89.5902 54.3603Z" stroke="#191816" stroke-width="0.336"/>
<path d="M65.642 67.5927C73.0857 62.3767 80.0202 57.9376 85.2137 54.977C87.8113 53.4963 89.9689 52.3879 91.5349 51.737C92.3193 51.4109 92.947 51.2032 93.4035 51.1186C93.6325 51.0762 93.8082 51.0668 93.9346 51.0836C94.0616 51.1005 94.1155 51.1401 94.1388 51.1734C94.1621 51.2067 94.181 51.2708 94.1535 51.396C94.1261 51.5205 94.0573 51.6825 93.9393 51.8832C93.704 52.2835 93.2944 52.8025 92.7202 53.4285C91.5738 54.6782 89.7955 56.3279 87.5169 58.264C82.9614 62.1348 76.4217 67.1375 68.9779 72.3535C61.5342 77.5695 54.5997 82.0087 49.4062 84.9692C46.8087 86.45 44.651 87.5583 43.085 88.2093C42.3006 88.5353 41.673 88.7431 41.2164 88.8276C40.9875 88.87 40.8117 88.8794 40.6853 88.8626C40.5583 88.8457 40.5044 88.8061 40.4811 88.7728C40.4578 88.7396 40.439 88.6754 40.4664 88.5503C40.4938 88.4257 40.5626 88.2637 40.6806 88.063C40.916 87.6627 41.3255 87.1437 41.8997 86.5178C43.0462 85.268 44.8244 83.6183 47.103 81.6823C51.6585 77.8114 58.1983 72.8088 65.642 67.5927Z" stroke="#191816" stroke-width="0.336"/>
<path d="M64.0482 65.3185C71.4894 60.1042 78.592 55.913 84.0582 53.3512C86.7925 52.0698 89.1099 51.1996 90.8519 50.8109C91.7236 50.6164 92.4412 50.5449 92.9902 50.5974C93.541 50.6502 93.8941 50.8243 94.0818 51.0921C94.2695 51.36 94.3126 51.7514 94.1742 52.287C94.0362 52.8211 93.724 53.4711 93.2436 54.2241C92.2836 55.7287 90.6746 57.6099 88.5367 59.7425C84.2629 64.0059 77.8988 69.2511 70.4577 74.4653C63.0165 79.6795 55.9139 83.8708 50.4478 86.4325C47.7134 87.714 45.396 88.5842 43.654 88.9728C42.7823 89.1673 42.0647 89.2389 41.5157 89.1863C40.965 89.1336 40.6118 88.9595 40.4241 88.6916C40.2364 88.4237 40.1933 88.0324 40.3317 87.4967C40.4698 86.9627 40.7819 86.3127 41.2624 85.5597C42.2223 84.055 43.8313 82.1739 45.9692 80.0412C50.243 75.7779 56.6071 70.5327 64.0482 65.3185Z" stroke="#191816" stroke-width="0.336"/>
<path d="M62.4546 63.044C69.8929 57.8317 77.176 53.9065 82.9351 51.7721C85.8158 50.7044 88.3061 50.0883 90.2393 49.9788C92.1832 49.8688 93.508 50.273 94.1388 51.1732C94.7695 52.0733 94.6972 53.4565 93.9302 55.2461C93.1674 57.0259 91.7382 59.1562 89.7513 61.4994C85.7791 66.1839 79.6035 71.6896 72.1652 76.9018C64.7269 82.1141 57.4438 86.0393 51.6848 88.1737C48.804 89.2414 46.3138 89.8575 44.3806 89.967C42.4366 90.077 41.1118 89.6728 40.4811 88.7726C39.8503 87.8725 39.9226 86.4893 40.6896 84.6997C41.4524 82.9199 42.8816 80.7896 44.8685 78.4464C48.8407 73.7619 55.0163 68.2562 62.4546 63.044Z" stroke="#191816" stroke-width="0.336"/>
<path d="M61.0074 61.1513C68.4208 55.9566 75.8329 52.2655 81.8198 50.4942C84.8141 49.6083 87.4426 49.2055 89.5321 49.3292C91.6238 49.4531 93.146 50.1019 93.9763 51.2868C94.8066 52.4718 94.8968 54.124 94.2992 56.1324C93.7022 58.1386 92.4263 60.4717 90.5715 62.9837C86.8629 68.0063 80.8634 73.7132 73.4499 78.908C66.0365 84.1027 58.6244 87.7938 52.6376 89.5651C49.6432 90.451 47.0148 90.8538 44.9253 90.7301C42.8335 90.6062 41.3114 89.9574 40.481 88.7725C39.6507 87.5875 39.5605 85.9353 40.1581 83.9269C40.7551 81.9207 42.031 79.5876 43.8858 77.0756C47.5944 72.053 53.594 66.3461 61.0074 61.1513Z" stroke="#191816" stroke-width="0.336"/>
<path d="M59.2998 58.7148C66.7101 53.5222 74.3027 50.0964 80.5831 48.7507C83.7237 48.0778 86.5277 47.9268 88.8133 48.329C91.098 48.731 92.8521 49.6829 93.9192 51.2058C94.9864 52.7286 95.2822 54.7023 94.8802 56.987C94.478 59.2726 93.3789 61.8567 91.6743 64.5789C88.2656 70.0226 82.4537 75.9898 75.0434 81.1824C67.6332 86.375 60.0405 89.8008 53.7601 91.1464C50.6195 91.8193 47.8155 91.9703 45.5299 91.5681C43.2452 91.1661 41.4911 90.2143 40.424 88.6914C39.3568 87.1685 39.061 85.1948 39.463 82.9102C39.8652 80.6246 40.9643 78.0405 42.6689 75.3183C46.0776 69.8745 51.8895 63.9074 59.2998 58.7148Z" stroke="#191816" stroke-width="0.336"/>
<path d="M57.5923 56.2778C64.9992 51.0876 72.7788 47.9357 79.3635 47.0296C85.958 46.1222 91.3022 47.4708 93.9193 51.2055C96.5363 54.9403 95.9796 60.4239 92.8755 66.3125C89.7761 72.1924 84.1579 78.4287 76.751 83.6189C69.3441 88.8091 61.5645 91.961 54.9798 92.8671C48.3853 93.7746 43.0411 92.4259 40.424 88.6912C37.807 84.9564 38.3637 79.4729 41.4678 73.5842C44.5672 67.7044 50.1854 61.468 57.5923 56.2778Z" stroke="#191816" stroke-width="0.336"/>
<path d="M55.4295 53.1914C62.8317 48.0044 70.8544 45.2078 77.836 44.8724C84.8201 44.5368 90.7361 46.6629 93.9762 51.2868C97.2162 55.9107 97.1952 62.1971 94.4956 68.6472C91.7971 75.0949 86.4298 81.681 79.0276 86.8679C71.6254 92.0549 63.6027 94.8515 56.6211 95.1869C49.637 95.5225 43.721 93.3963 40.4809 88.7725C37.2408 84.1486 37.2619 77.8621 39.9614 71.4121C42.66 64.9644 48.0273 58.3783 55.4295 53.1914Z" stroke="#191816" stroke-width="0.336"/>
<path d="M53.5753 50.3732C60.9955 45.1737 69.2632 42.6899 76.6272 42.8705C83.9913 43.0512 90.4394 45.8946 94.2522 51.3358C98.0651 56.7771 98.5365 63.8085 96.1925 70.7919C93.8485 77.7752 88.6916 84.6984 81.2714 89.8979C73.8512 95.0975 65.5835 97.5813 58.2195 97.4006C50.8555 97.2199 44.4073 94.3765 40.5945 88.9353C36.7817 83.4941 36.3103 76.4626 38.6543 69.4792C40.9982 62.4959 46.1551 55.5727 53.5753 50.3732Z" stroke="#191816" stroke-width="0.336"/>
<path d="M49.9656 45.3943C64.7483 35.0357 84.4747 37.7277 94.0332 51.3685C103.592 65.0094 99.3881 84.4697 84.6055 94.8284C69.8228 105.187 50.0964 102.495 40.5379 88.8542C30.9794 75.2133 35.183 55.7529 49.9656 45.3943Z" stroke="#191816" stroke-width="0.336"/>
<path d="M51.673 47.8309C66.4693 37.4627 85.4514 39.1216 94.09 51.4496C102.729 63.7776 97.808 82.1858 83.0117 92.554C68.2154 102.922 49.2333 101.263 40.5947 88.9352C31.9562 76.6072 36.8767 58.1991 51.673 47.8309Z" stroke="#191816" stroke-width="0.336"/>
<rect x="24.1919" y="38.1558" width="80.64" height="114.24" rx="7.392" transform="rotate(-23.9849 24.1919 38.1558)" fill="#CFCDBC"/>
<circle cx="83.7885" cy="71.6926" r="32.76" transform="rotate(-23.98 83.7885 71.6926)" stroke="#191816" stroke-width="0.336"/>
<path d="M70.7485 41.8887L97.2717 101.517" stroke="#191816" stroke-width="0.336"/>
<path d="M113.875 58.3101L53.7027 85.0751" stroke="#191816" stroke-width="0.336"/>
<path d="M86.535 70.4714C90.229 78.7762 93.2581 86.4325 95.1694 92.0968C96.1253 94.9299 96.8 97.2598 97.139 98.9215C97.3088 99.7538 97.3925 100.41 97.3881 100.874C97.3858 101.107 97.3614 101.281 97.3207 101.402C97.2798 101.523 97.2306 101.569 97.1935 101.585C97.1564 101.602 97.0898 101.608 96.9722 101.557C96.8552 101.506 96.7094 101.408 96.535 101.253C96.1872 100.946 95.7562 100.444 95.2518 99.761C94.2447 98.3964 92.9661 96.3351 91.5022 93.728C88.5753 88.5155 84.9176 81.1388 81.2235 72.834C77.5295 64.5292 74.5004 56.8729 72.5891 51.2087C71.6332 48.3756 70.9585 46.0457 70.6195 44.3839C70.4497 43.5517 70.366 42.8958 70.3704 42.4315C70.3727 42.1987 70.3971 42.0244 70.4378 41.9036C70.4787 41.7822 70.5279 41.7368 70.565 41.7203C70.6021 41.7038 70.6687 41.6976 70.7863 41.7486C70.9033 41.7993 71.0491 41.8978 71.2235 42.0521C71.5713 42.3597 72.0023 42.8611 72.5067 43.5445C73.5138 44.9091 74.7924 46.9704 76.2563 49.5775C79.1832 54.79 82.8409 62.1666 86.535 70.4714Z" stroke="#191816" stroke-width="0.336"/>
<path d="M89.0723 69.3426C92.7651 77.6446 95.5186 85.4183 96.9862 91.2739C97.7204 94.203 98.1307 96.6442 98.1786 98.4283C98.2025 99.3212 98.1354 100.039 97.9786 100.568C97.8214 101.098 97.5829 101.412 97.284 101.545C96.9852 101.678 96.5928 101.645 96.0936 101.406C95.5959 101.169 95.0177 100.738 94.3706 100.122C93.0776 98.8918 91.5394 96.9524 89.8556 94.4457C86.4896 89.4345 82.5601 82.1838 78.8673 73.8819C75.1745 65.5799 72.421 57.8062 70.9533 51.9506C70.2192 49.0215 69.8089 46.5803 69.761 44.7962C69.737 43.9033 69.8042 43.1853 69.961 42.6565C70.1182 42.1261 70.3567 41.8128 70.6555 41.6798C70.9544 41.5469 71.3468 41.5796 71.846 41.818C72.3437 42.0557 72.9219 42.4866 73.569 43.1023C74.862 44.3327 76.4002 46.2721 78.084 48.7788C81.45 53.79 85.3795 61.0407 89.0723 69.3426Z" stroke="#191816" stroke-width="0.336"/>
<path d="M91.6097 68.2142C95.3011 76.513 97.759 84.4129 98.7511 90.4741C99.2474 93.506 99.3753 96.0681 99.1125 97.9865C98.8482 99.9155 98.1978 101.138 97.1935 101.585C96.1892 102.032 94.8455 101.696 93.2359 100.601C91.6351 99.511 89.8179 97.7003 87.8985 95.3015C84.0614 90.5058 79.8402 83.3901 76.1488 75.0914C72.4574 66.7926 69.9995 58.8926 69.0074 52.8314C68.5111 49.7995 68.3833 47.2374 68.6461 45.319C68.9103 43.39 69.5607 42.1671 70.565 41.7204C71.5693 41.2736 72.9131 41.6095 74.5227 42.705C76.1234 43.7945 77.9406 45.6052 79.86 48.004C83.6972 52.7998 87.9183 59.9154 91.6097 68.2142Z" stroke="#191816" stroke-width="0.336"/>
<path d="M93.7441 67.156C97.4232 75.427 99.6266 83.4087 100.219 89.624C100.515 92.7326 100.407 95.3895 99.8852 97.4167C99.363 99.446 98.4348 100.816 97.1127 101.404C95.7907 101.992 94.1518 101.764 92.295 100.793C90.4402 99.8227 88.3947 98.1237 86.2843 95.8221C82.0648 91.2204 77.6125 84.239 73.9335 75.968C70.2544 67.697 68.051 59.7153 67.459 53.5C67.1629 50.3915 67.2708 47.7345 67.7924 45.7074C68.3146 43.678 69.2428 42.3083 70.5649 41.7202C71.8869 41.1322 73.5258 41.36 75.3826 42.3312C77.2374 43.3013 79.2829 45.0004 81.3933 47.3019C85.6128 51.9036 90.0651 58.885 93.7441 67.156Z" stroke="#191816" stroke-width="0.336"/>
<path d="M96.463 65.947C100.14 74.2145 102.049 82.3227 102.167 88.7446C102.226 91.9558 101.837 94.7369 101.005 96.9032C100.173 99.0686 98.9027 100.608 97.2036 101.364C95.5046 102.119 93.5108 102.032 91.3454 101.2C89.1791 100.367 86.8533 98.7938 84.5079 96.5995C79.8176 92.2114 75.0738 85.3644 71.3963 77.0969C67.7189 68.8294 65.8104 60.7212 65.6923 54.2994C65.6333 51.0881 66.0221 48.307 66.8545 46.1407C67.6866 43.9753 68.9567 42.4359 70.6557 41.6802C72.3548 40.9244 74.3486 41.012 76.514 41.8441C78.6803 42.6765 81.0061 44.2501 83.3515 46.4444C88.0418 50.8325 92.7855 57.6795 96.463 65.947Z" stroke="#191816" stroke-width="0.336"/>
<path d="M99.1812 64.7375C102.857 73.0012 104.461 81.2403 104.089 87.8767C103.717 94.523 101.37 99.51 97.2032 101.363C93.0364 103.217 87.761 101.62 82.5757 97.4461C77.3982 93.2781 72.3531 86.5696 68.6774 78.3059C65.0016 70.0422 63.3978 61.803 63.7694 55.1667C64.1415 48.5204 66.4886 43.5333 70.6553 41.6799C74.8221 39.8265 80.0976 41.423 85.2828 45.5972C90.4604 49.7653 95.5054 56.4737 99.1812 64.7375Z" stroke="#191816" stroke-width="0.336"/>
<path d="M102.625 63.2057C106.299 71.4642 107.507 79.8739 106.499 86.7905C105.491 93.7097 102.272 99.1091 97.1129 101.404C91.9541 103.698 85.7881 102.474 79.9743 98.5892C74.1627 94.7059 68.7263 88.1767 65.0528 79.9182C61.3794 71.6597 60.1708 63.25 61.1785 56.3334C62.1866 49.4142 65.4063 44.0148 70.565 41.7202C75.7238 39.4255 81.8899 40.65 87.7036 44.5347C93.5152 48.418 98.9516 54.9472 102.625 63.2057Z" stroke="#191816" stroke-width="0.336"/>
<path d="M105.746 61.9258C109.429 70.2044 110.283 78.7947 108.696 85.9878C107.108 93.181 103.083 98.9653 97.0122 101.666C90.9416 104.366 83.95 103.482 77.5447 99.8442C71.1395 96.2063 65.3319 89.8191 61.6495 81.5406C57.9672 73.262 57.1125 64.6717 58.7 57.4786C60.2875 50.2854 64.3131 44.5011 70.3837 41.8008C76.4544 39.1005 83.446 39.9843 89.8513 43.6222C96.2565 47.26 102.064 53.6472 105.746 61.9258Z" stroke="#191816" stroke-width="0.336"/>
<path d="M111.325 59.336C118.661 75.8287 112.241 94.6745 97.0222 101.444C81.8034 108.213 63.5081 100.361 56.172 83.8684C48.8358 67.3757 55.2555 48.5299 70.4743 41.7604C85.6931 34.9909 103.988 42.8432 111.325 59.336Z" stroke="#191816" stroke-width="0.336"/>
<path d="M108.606 60.5455C115.949 77.0534 110.685 95.3665 96.9313 101.485C83.1772 107.602 66.052 99.2479 58.7091 82.74C51.3662 66.2321 56.6294 47.9189 70.3834 41.8009C84.1375 35.683 101.263 44.0376 108.606 60.5455Z" stroke="#191816" stroke-width="0.336"/>
<path d="M82.5669 68.9465C90.8717 65.2524 98.528 62.2233 104.192 60.3121C107.025 59.3561 109.355 58.6815 111.017 58.3425C111.849 58.1727 112.505 58.089 112.969 58.0934C113.202 58.0956 113.376 58.12 113.497 58.1607C113.619 58.2016 113.664 58.2508 113.681 58.288C113.697 58.3251 113.703 58.3917 113.652 58.5092C113.602 58.6263 113.503 58.772 113.349 58.9464C113.041 59.2942 112.54 59.7253 111.856 60.2296C110.492 61.2368 108.431 62.5154 105.823 63.9793C100.611 66.9061 93.2343 70.5639 84.9295 74.2579C76.6247 77.952 68.9684 80.9811 63.3041 82.8923C60.4711 83.8482 58.1411 84.5229 56.4794 84.8619C55.6472 85.0317 54.9913 85.1154 54.527 85.111C54.2942 85.1088 54.1199 85.0844 53.999 85.0436C53.8776 85.0027 53.8323 84.9536 53.8158 84.9164C53.7993 84.8793 53.7931 84.8127 53.844 84.6952C53.8947 84.5781 53.9933 84.4324 54.1475 84.258C54.4552 83.9102 54.9566 83.4791 55.64 82.9747C57.0045 81.9676 59.0658 80.689 61.6729 79.2251C66.8854 76.2983 74.2621 72.6405 82.5669 68.9465Z" stroke="#191816" stroke-width="0.336"/>
<path d="M81.4383 66.4094C89.7403 62.7166 97.514 59.9631 103.37 58.4955C106.299 57.7613 108.74 57.351 110.524 57.3031C111.417 57.2791 112.135 57.3463 112.664 57.5031C113.194 57.6603 113.507 57.8988 113.64 58.1977C113.773 58.4965 113.741 58.8889 113.502 59.3881C113.264 59.8858 112.834 60.464 112.218 61.1111C110.988 62.4041 109.048 63.9423 106.541 65.6261C101.53 68.9921 94.2795 72.9216 85.9776 76.6144C77.6756 80.3072 69.9019 83.0607 64.0463 84.5283C61.1172 85.2625 58.676 85.6728 56.8919 85.7207C55.999 85.7446 55.281 85.6775 54.7522 85.5207C54.2218 85.3635 53.9085 85.125 53.7755 84.8261C53.6426 84.5273 53.6753 84.1349 53.9137 83.6357C54.1514 83.138 54.5823 82.5598 55.198 81.9127C56.4284 80.6197 58.3678 79.0815 60.8745 77.3977C65.8857 74.0317 73.1364 70.1022 81.4383 66.4094Z" stroke="#191816" stroke-width="0.336"/>
<path d="M80.3096 63.8717C88.6084 60.1803 96.5083 57.7224 102.57 56.7303C105.601 56.234 108.164 56.1062 110.082 56.369C112.011 56.6332 113.234 57.2836 113.681 58.2879C114.127 59.2922 113.791 60.636 112.696 62.2456C111.606 63.8463 109.796 65.6635 107.397 67.5829C102.601 71.4201 95.4856 75.6412 87.1868 79.3326C78.888 83.024 70.9881 85.4819 64.9269 86.4741C61.895 86.9703 59.3328 87.0982 57.4145 86.8354C55.4854 86.5711 54.2625 85.9207 53.8158 84.9164C53.3691 83.9121 53.705 82.5684 54.8005 80.9588C55.8899 79.358 57.7006 77.5408 60.0995 75.6214C64.8952 71.7843 72.0109 67.5631 80.3096 63.8717Z" stroke="#191816" stroke-width="0.336"/>
<path d="M79.2517 61.7371C87.5227 58.058 95.5044 55.8546 101.72 55.2626C104.828 54.9665 107.485 55.0745 109.512 55.596C111.542 56.1182 112.911 57.0464 113.499 58.3685C114.088 59.6905 113.86 61.3294 112.889 63.1862C111.918 65.041 110.219 67.0865 107.918 69.1969C103.316 73.4164 96.3347 77.8687 88.0637 81.5477C79.7927 85.2268 71.811 87.4302 65.5957 88.0222C62.4872 88.3183 59.8302 88.2104 57.8031 87.6888C55.7737 87.1666 54.404 86.2384 53.8159 84.9163C53.2279 83.5943 53.4557 81.9554 54.4269 80.0986C55.397 78.2438 57.0961 76.1983 59.3976 74.0879C63.9993 69.8684 70.9807 65.4161 79.2517 61.7371Z" stroke="#191816" stroke-width="0.336"/>
<path d="M78.0425 59.0187C86.31 55.3412 94.4182 53.4328 100.84 53.3147C104.051 53.2556 106.832 53.6444 108.999 54.4768C111.164 55.3089 112.703 56.579 113.459 58.2781C114.215 59.9771 114.127 61.9709 113.295 64.1363C112.463 66.3026 110.889 68.6284 108.695 70.9738C104.307 75.6641 97.4599 80.4079 89.1924 84.0853C80.9249 87.7628 72.8167 89.6713 66.3948 89.7894C63.1836 89.8484 60.4025 89.4596 58.2362 88.6272C56.0708 87.7951 54.5314 86.525 53.7756 84.826C53.0199 83.1269 53.1074 81.1331 53.9395 78.9677C54.772 76.8014 56.3456 74.4756 58.5399 72.1302C62.928 67.4399 69.775 62.6962 78.0425 59.0187Z" stroke="#191816" stroke-width="0.336"/>
<path d="M76.8332 56.3002C85.0969 52.6244 93.336 51.0207 99.9724 51.3922C106.619 51.7644 111.606 54.1114 113.459 58.2782C115.313 62.445 113.716 67.7205 109.542 72.9057C105.374 78.0832 98.6653 83.1283 90.4016 86.8041C82.1379 90.4799 73.8987 92.0837 67.2624 91.7121C60.6161 91.3399 55.629 88.9929 53.7756 84.8261C51.9222 80.6593 53.5187 75.3838 57.6929 70.1986C61.861 65.0211 68.5694 59.976 76.8332 56.3002Z" stroke="#191816" stroke-width="0.336"/>
<path d="M75.3014 52.8564C83.5599 49.1829 91.9696 47.9743 98.8862 48.982C105.805 49.9901 111.205 53.2098 113.499 58.3686C115.794 63.5273 114.57 69.6934 110.685 75.5071C106.802 81.3187 100.272 86.7551 92.0139 90.4286C83.7554 94.1021 75.3457 95.3106 68.4291 94.3029C61.5099 93.2949 56.1105 90.0752 53.8159 84.9164C51.5212 79.7577 52.7457 73.5916 56.6304 67.7779C60.5137 61.9663 67.0429 56.5298 75.3014 52.8564Z" stroke="#191816" stroke-width="0.336"/>
<path d="M74.0215 49.7352C82.3001 46.0529 90.8904 45.1982 98.0835 46.7857C105.277 48.3732 111.061 52.3988 113.761 58.4695C116.462 64.5401 115.578 71.5317 111.94 77.937C108.302 84.3422 101.915 90.1497 93.6363 93.8321C85.3577 97.5145 76.7674 98.3692 69.5743 96.7817C62.3811 95.1941 56.5968 91.1686 53.8965 85.0979C51.1962 79.0273 52.08 72.0357 55.7179 65.6304C59.3557 59.2252 65.7429 53.4176 74.0215 49.7352Z" stroke="#191816" stroke-width="0.336"/>
<path d="M71.4317 44.1569C87.9244 36.8208 106.77 43.2404 113.54 58.4593C120.309 73.6781 112.457 91.9733 95.9641 99.3095C79.4714 106.646 60.6256 100.226 53.8561 85.0071C47.0866 69.7883 54.9389 51.4931 71.4317 44.1569Z" stroke="#191816" stroke-width="0.336"/>
<path d="M72.6409 46.8758C89.1488 39.5329 107.462 44.796 113.58 58.5501C119.698 72.3042 111.343 89.4295 94.8354 96.7724C78.3275 104.115 60.0144 98.8521 53.8964 85.098C47.7784 71.3439 56.133 54.2187 72.6409 46.8758Z" stroke="#191816" stroke-width="0.336"/>
<rect x="55.104" y="32.3657" width="80.64" height="114.24" rx="7.392" transform="rotate(-8.70593 55.104 32.3657)" fill="#FEFCED"/>
<path d="M71.6897 42.9862C72.8853 42.803 73.9908 43.629 74.174 44.8246C74.3572 46.0203 73.5472 47.1233 72.3515 47.3065C71.8573 47.3822 71.3865 47.2912 70.9759 47.0604C69.0783 46.1763 66.8464 46.5183 65.3005 47.9298C64.9778 48.273 64.5559 48.5008 64.0457 48.5789C62.866 48.7597 61.763 47.9497 61.5798 46.754C61.4137 45.67 62.0581 44.6576 63.054 44.3418C66.4355 42.8774 68.559 39.4847 68.4007 35.7888C68.3621 34.6853 69.1414 33.7011 70.2414 33.5326C71.437 33.3494 72.5425 34.1753 72.7257 35.371C72.8918 36.4551 72.2474 37.4675 71.2515 37.7832C68.9579 38.7872 67.2229 40.6683 66.4134 42.9461C66.0228 44.0175 66.992 45.1254 68.0957 44.8747C68.9628 44.6766 69.7797 44.2578 70.4532 43.6488C70.7759 43.3057 71.1955 43.0619 71.6897 42.9862Z" fill="#191816"/>
<path d="M41.4918 43.6591C42.597 43.1675 43.881 43.6731 44.3726 44.7783C44.8642 45.8835 44.3733 47.1609 43.2681 47.6525C42.8113 47.8557 42.3332 47.8919 41.8762 47.7774C39.8128 47.4243 37.7498 48.342 36.6302 50.1109C36.4093 50.5269 36.0622 50.8578 35.5907 51.0675C34.5002 51.5526 33.2228 51.0617 32.7312 49.9565C32.2855 48.9545 32.6405 47.8081 33.518 47.2412C36.3945 44.938 37.5494 41.1057 36.4234 37.5821C36.0955 36.5276 36.5881 35.373 37.6049 34.9207C38.7101 34.4291 39.994 34.9347 40.4856 36.0399C40.9314 37.0419 40.5764 38.1883 39.6988 38.7552C37.7506 40.3278 36.5723 42.5995 36.3912 45.01C36.2966 46.1465 37.5234 46.96 38.5221 46.4275C39.3064 46.008 39.9841 45.3888 40.4735 44.6239C40.6945 44.2079 41.035 43.8623 41.4918 43.6591Z" fill="#191816"/>
<path d="M18.4204 49.0074C19.411 48.3132 20.768 48.5636 21.4622 49.5542C22.1563 50.5448 21.9192 51.8926 20.9285 52.5868C20.5191 52.8737 20.0567 53.0007 19.5863 52.9759C17.4935 53.0245 15.6444 54.3202 14.8843 56.2707C14.7471 56.7214 14.4698 57.1126 14.0471 57.4088C13.0698 58.0936 11.722 57.8565 11.0278 56.8659C10.3985 55.9677 10.5274 54.7746 11.2801 54.0501C13.6623 51.2387 14.062 47.2562 12.282 44.0134C11.7583 43.0412 12.0207 41.8136 12.932 41.175C13.9226 40.4809 15.2797 40.7312 15.9738 41.7218C16.6032 42.62 16.4743 43.8132 15.7215 44.5376C14.1105 46.4542 13.389 48.9094 13.6729 51.31C13.7977 52.4436 15.1575 53.0071 16.0358 52.2932C16.7252 51.7313 17.2718 50.9938 17.6057 50.1493C17.7429 49.6987 18.0109 49.2943 18.4204 49.0074Z" fill="#191816"/>
<path d="M144.937 125.642C146.133 125.459 147.239 126.285 147.422 127.481C147.605 128.677 146.795 129.78 145.599 129.963C145.105 130.038 144.634 129.947 144.224 129.717C142.326 128.833 140.094 129.175 138.548 130.586C138.226 130.929 137.804 131.157 137.294 131.235C136.114 131.416 135.011 130.606 134.828 129.41C134.662 128.326 135.306 127.314 136.302 126.998C138.825 125.894 140.646 123.722 141.345 121.151C141.545 120.435 140.982 119.738 140.239 119.787C139.092 119.865 137.988 120.327 137.1 121.132C136.777 121.476 136.358 121.719 135.848 121.798C134.668 121.978 133.562 121.152 133.379 119.957C133.196 118.761 134.004 117.642 135.183 117.461C135.694 117.383 136.167 117.49 136.577 117.721C138.475 118.605 140.707 118.263 142.253 116.851C142.575 116.508 142.995 116.265 143.489 116.189C144.685 116.006 145.79 116.832 145.973 118.027C146.14 119.111 145.495 120.124 144.499 120.439C142.19 121.446 140.457 123.343 139.65 125.637C139.273 126.69 140.224 127.784 141.312 127.536C142.181 127.354 143.014 126.932 143.701 126.305C144.024 125.962 144.443 125.718 144.937 125.642Z" fill="#191816"/>
<circle cx="103.391" cy="82.5589" r="32.76" transform="rotate(-8.71 103.391 82.5589)" stroke="#191816" stroke-width="0.336"/>
<path d="M98.6609 50.3721L108.544 114.88" stroke="#191816" stroke-width="0.336"/>
<path d="M135.939 77.5723L70.8425 87.5451" stroke="#191816" stroke-width="0.336"/>
<path d="M106.362 82.1034C107.739 91.0879 108.644 99.2717 108.996 105.239C109.172 108.224 109.21 110.649 109.099 112.342C109.044 113.189 108.952 113.844 108.825 114.291C108.762 114.515 108.692 114.677 108.621 114.783C108.55 114.889 108.49 114.92 108.45 114.926C108.41 114.932 108.344 114.92 108.244 114.84C108.145 114.761 108.03 114.627 107.902 114.432C107.648 114.044 107.364 113.447 107.057 112.655C106.445 111.073 105.755 108.748 105.029 105.847C103.578 100.048 101.993 91.9682 100.616 82.9838C99.2397 73.9993 98.3339 65.8155 97.982 59.8478C97.8059 56.863 97.7687 54.4377 97.8793 52.7453C97.9347 51.8978 98.0266 51.243 98.1532 50.7962C98.2167 50.5722 98.2861 50.4105 98.3572 50.3047C98.4287 50.1983 98.488 50.1676 98.5282 50.1614C98.5684 50.1553 98.6342 50.1668 98.7342 50.2469C98.8338 50.3266 98.9484 50.4601 99.0761 50.6549C99.3306 51.0432 99.6143 51.6404 99.9209 52.4326C100.533 54.0142 101.224 56.3394 101.949 59.24C103.4 65.0394 104.986 73.119 106.362 82.1034Z" stroke="#191816" stroke-width="0.336"/>
<path d="M109.107 81.683C110.483 90.6644 111.092 98.8889 110.966 104.924C110.902 107.943 110.655 110.406 110.231 112.14C110.019 113.008 109.766 113.683 109.475 114.152C109.184 114.622 108.871 114.861 108.548 114.911C108.224 114.96 107.855 114.826 107.436 114.464C107.018 114.104 106.574 113.536 106.112 112.771C105.189 111.244 104.215 108.968 103.251 106.106C101.324 100.385 99.4427 92.3558 98.0668 83.3744C96.6908 74.393 96.0818 66.1685 96.2082 60.1331C96.2714 57.114 96.5185 54.651 96.9422 52.9172C97.1542 52.0495 97.4081 51.3746 97.6986 50.9057C97.99 50.4354 98.3026 50.196 98.6259 50.1465C98.9492 50.097 99.3191 50.2318 99.7379 50.5933C100.155 50.9537 100.6 51.5217 101.062 52.2861C101.985 53.8135 102.958 56.0896 103.922 58.9513C105.85 64.672 107.731 72.7016 109.107 81.683Z" stroke="#191816" stroke-width="0.336"/>
<path d="M111.852 81.2626C113.228 90.2406 113.518 98.5089 112.879 104.617C112.559 107.673 112.008 110.178 111.249 111.96C110.486 113.751 109.536 114.76 108.45 114.926C107.363 115.092 106.156 114.415 104.891 112.934C103.634 111.461 102.358 109.236 101.138 106.416C98.6994 100.779 96.5013 92.803 95.1258 83.8251C93.7504 74.8471 93.4599 66.5787 94.0991 60.4702C94.4189 57.4146 94.9703 54.9093 95.7291 53.1278C96.492 51.3365 97.4415 50.3281 98.528 50.1616C99.6145 49.9952 100.822 50.6731 102.087 52.1538C103.344 53.6264 104.62 55.8518 105.84 58.6715C108.279 64.3085 110.477 72.2846 111.852 81.2626Z" stroke="#191816" stroke-width="0.336"/>
<path d="M114.19 80.804C115.561 89.7519 115.585 98.0322 114.519 104.184C113.986 107.261 113.182 109.795 112.145 111.614C111.107 113.434 109.851 114.511 108.42 114.73C106.99 114.949 105.469 114.298 103.934 112.872C102.4 111.447 100.874 109.269 99.4442 106.493C96.5856 100.943 94.1291 93.0353 92.7583 84.0874C91.3875 75.1395 91.364 66.8592 92.4298 60.7074C92.9628 57.6306 93.7667 55.0959 94.8038 53.2777C95.8419 51.4575 97.0981 50.3806 98.5284 50.1615C99.9586 49.9424 101.48 50.5938 103.015 52.0197C104.549 53.4441 106.075 55.6219 107.504 58.398C110.363 63.9485 112.82 71.8561 114.19 80.804Z" stroke="#191816" stroke-width="0.336"/>
<path d="M117.131 80.3533C118.502 89.2974 118.207 97.622 116.63 103.848C115.841 106.962 114.734 109.542 113.36 111.413C111.987 113.283 110.356 114.433 108.518 114.715C106.68 114.996 104.78 114.387 102.91 113.014C101.039 111.64 99.2101 109.51 97.5254 106.775C94.1564 101.307 91.3834 93.4519 90.0132 84.5078C88.6429 75.5636 88.9373 67.2391 90.5147 61.0128C91.3035 57.8994 92.411 55.3189 93.7845 53.4483C95.1575 51.5785 96.7882 50.428 98.6263 50.1464C100.464 49.8648 102.365 50.4743 104.235 51.8474C106.105 53.2209 107.934 55.3515 109.619 58.086C112.988 63.5545 115.761 71.4091 117.131 80.3533Z" stroke="#191816" stroke-width="0.336"/>
<path d="M120.072 79.9028C121.442 88.8429 120.819 97.2135 118.713 103.518C116.603 109.831 113.026 114.024 108.518 114.715C104.01 115.405 99.3413 112.476 95.4385 107.083C91.5415 101.699 88.4414 93.8985 87.0718 84.9585C85.7021 76.0184 86.3249 67.6478 88.4312 61.3435C90.5406 55.0299 94.1182 50.8371 98.626 50.1465C103.134 49.4559 107.803 52.3854 111.705 57.7779C115.602 63.1624 118.703 70.9627 120.072 79.9028Z" stroke="#191816" stroke-width="0.336"/>
<path d="M123.798 79.3319C125.166 88.2663 124.117 96.6974 121.324 103.104C118.529 109.514 114.001 113.875 108.42 114.73C102.839 115.585 97.2131 112.779 92.6277 107.501C88.0441 102.224 84.5191 94.4935 83.1504 85.5591C81.7816 76.6246 82.8306 68.1935 85.6243 61.7865C88.4191 55.3771 92.9471 51.0163 98.5281 50.1613C104.109 49.3063 109.735 52.1115 114.32 57.3902C118.904 62.6671 122.429 70.3975 123.798 79.3319Z" stroke="#191816" stroke-width="0.336"/>
<path d="M127.146 78.9188C128.518 87.875 127.08 96.3871 123.654 102.908C120.228 109.429 114.822 113.949 108.254 114.955C101.686 115.961 95.1745 113.268 89.9534 108.071C84.7324 102.875 80.8121 95.1835 79.4401 86.2274C78.068 77.2713 79.5059 68.7592 82.9318 62.2381C86.3577 55.717 91.7646 51.1971 98.3321 50.1909C104.9 49.1848 111.412 51.8787 116.633 57.0752C121.854 62.2715 125.774 69.9627 127.146 78.9188Z" stroke="#191816" stroke-width="0.336"/>
<path d="M133.209 77.8903C135.943 95.7329 124.786 112.223 108.322 114.745C91.8575 117.267 76.2762 104.874 73.5427 87.0312C70.8092 69.1887 81.9656 52.699 98.43 50.1766C114.894 47.6543 130.476 60.0477 133.209 77.8903Z" stroke="#191816" stroke-width="0.336"/>
<path d="M130.268 78.3405C133.004 96.1995 123.104 112.48 108.224 114.76C93.3441 117.039 79.0238 104.469 76.2878 86.6103C73.5518 68.7513 83.4523 52.4709 98.3321 50.1913C113.212 47.9117 127.532 60.4816 130.268 78.3405Z" stroke="#191816" stroke-width="0.336"/>
<path d="M102.936 79.5872C111.92 78.2108 120.104 77.3051 126.072 76.9531C129.057 76.777 131.482 76.7398 133.174 76.8504C134.022 76.9058 134.677 76.9978 135.123 77.1244C135.347 77.1878 135.509 77.2573 135.615 77.3284C135.721 77.3998 135.752 77.4592 135.758 77.4993C135.764 77.5395 135.753 77.6054 135.673 77.7054C135.593 77.8049 135.46 77.9196 135.265 78.0472C134.876 78.3017 134.279 78.5855 133.487 78.8921C131.906 79.5042 129.58 80.1948 126.68 80.9204C120.88 82.3711 112.801 83.957 103.816 85.3334C94.8318 86.7098 86.648 87.6155 80.6804 87.9675C77.6956 88.1436 75.2702 88.1808 73.5779 88.0702C72.7303 88.0148 72.0755 87.9228 71.6288 87.7962C71.4048 87.7328 71.2431 87.6633 71.1372 87.5922C71.0308 87.5208 71.0001 87.4614 70.9939 87.4213C70.9878 87.3811 70.9993 87.3152 71.0794 87.2152C71.1592 87.1157 71.2927 87.001 71.4874 86.8734C71.8758 86.6189 72.473 86.3351 73.2651 86.0285C74.8467 85.4164 77.172 84.7258 80.0726 84.0002C85.8719 82.5495 93.9515 80.9636 102.936 79.5872Z" stroke="#191816" stroke-width="0.336"/>
<path d="M102.515 76.8421C111.497 75.4661 119.721 74.8571 125.757 74.9835C128.776 75.0467 131.239 75.2938 132.972 75.7175C133.84 75.9295 134.515 76.1834 134.984 76.4739C135.454 76.7653 135.694 77.0779 135.743 77.4012C135.793 77.7245 135.658 78.0944 135.296 78.5132C134.936 78.9307 134.368 79.3751 133.604 79.8371C132.076 80.7604 129.8 81.7336 126.938 82.6977C121.218 84.6251 113.188 86.5063 104.207 87.8822C95.2252 89.2582 87.0008 89.8672 80.9654 89.7408C77.9463 89.6776 75.4833 89.4305 73.7495 89.0068C72.8818 88.7947 72.2069 88.5408 71.738 88.2504C71.2677 87.959 71.0283 87.6464 70.9788 87.3231C70.9293 86.9998 71.0641 86.6298 71.4256 86.211C71.786 85.7935 72.354 85.3492 73.1184 84.8871C74.6458 83.9638 76.9219 82.9907 79.7836 82.0265C85.5043 80.0991 93.5339 78.218 102.515 76.8421Z" stroke="#191816" stroke-width="0.336"/>
<path d="M102.095 74.0973C111.073 72.7219 119.341 72.4313 125.45 73.0706C128.505 73.3903 131.011 73.9418 132.792 74.7005C134.583 75.4635 135.592 76.413 135.758 77.4995C135.925 78.586 135.247 79.7939 133.766 81.0581C132.294 82.3154 130.068 83.5916 127.248 84.8114C121.611 87.2501 113.635 89.4482 104.657 90.8236C95.6794 92.199 87.411 92.4896 81.3025 91.8504C78.2469 91.5306 75.7415 90.9792 73.9601 90.2204C72.1688 89.4574 71.1604 88.5079 70.9939 87.4214C70.8275 86.3349 71.5054 85.1271 72.9861 83.8628C74.4587 82.6055 76.6841 81.3293 79.5038 80.1095C85.1408 77.6709 93.1169 75.4727 102.095 74.0973Z" stroke="#191816" stroke-width="0.336"/>
<path d="M101.636 71.7591C110.584 70.3883 118.864 70.3648 125.016 71.4306C128.093 71.9636 130.628 72.7675 132.446 73.8046C134.266 74.8427 135.343 76.099 135.562 77.5292C135.781 78.9594 135.13 80.4804 133.704 82.0159C132.28 83.5497 130.102 85.0756 127.326 86.5053C121.775 89.3639 113.868 91.8204 104.92 93.1912C95.9717 94.562 87.6915 94.5855 81.5397 93.5197C78.4629 92.9867 75.9282 92.1828 74.11 91.1457C72.2898 90.1075 71.2129 88.8513 70.9938 87.4211C70.7747 85.9908 71.4261 84.4698 72.852 82.9344C74.2764 81.4006 76.4542 79.8747 79.2303 78.445C84.7808 75.5864 92.6883 73.1299 101.636 71.7591Z" stroke="#191816" stroke-width="0.336"/>
<path d="M101.186 68.8181C110.13 67.4478 118.454 67.7422 124.681 69.3196C127.794 70.1084 130.375 71.2159 132.245 72.5894C134.115 73.9624 135.266 75.5931 135.547 77.4312C135.829 79.2694 135.219 81.1697 133.846 83.0395C132.473 84.9101 130.342 86.7393 127.608 88.424C122.139 91.793 114.284 94.566 105.34 95.9363C96.3961 97.3065 88.0716 97.0122 81.8454 95.4348C78.7319 94.646 76.1514 93.5385 74.2808 92.1649C72.411 90.7919 71.2605 89.1612 70.9789 87.3231C70.6973 85.485 71.3069 83.5847 72.6799 81.7149C74.0534 79.8443 76.184 78.015 78.9186 76.3304C84.387 72.9613 92.2416 70.1883 101.186 68.8181Z" stroke="#191816" stroke-width="0.336"/>
<path d="M100.735 65.8773C109.675 64.5076 118.046 65.1304 124.35 67.2367C130.664 69.3461 134.856 72.9237 135.547 77.4315C136.238 81.9394 133.308 86.6081 127.916 90.5109C122.531 94.4079 114.731 97.5081 105.791 98.8777C96.8507 100.247 88.48 99.6246 82.1758 97.5183C75.8622 95.4089 71.6694 91.8312 70.9788 87.3234C70.2882 82.8156 73.2177 78.1468 78.6102 74.244C83.9947 70.347 91.795 67.2469 100.735 65.8773Z" stroke="#191816" stroke-width="0.336"/>
<path d="M100.164 62.1518C109.099 60.783 117.53 61.832 123.937 64.6257C130.346 67.4205 134.707 71.9485 135.562 77.5295C136.417 83.1105 133.612 88.7364 128.333 93.3217C123.056 97.9054 115.326 101.43 106.392 102.799C97.4572 104.168 89.026 103.119 82.619 100.325C76.2096 97.5304 71.8488 93.0024 70.9938 87.4214C70.1388 81.8404 72.944 76.2145 78.2228 71.6291C83.4996 67.0454 91.23 63.5205 100.164 62.1518Z" stroke="#191816" stroke-width="0.336"/>
<path d="M99.7519 58.8032C108.708 57.4311 117.22 58.8691 123.741 62.295C130.262 65.7209 134.782 71.1277 135.788 77.6952C136.794 84.2627 134.101 90.7747 128.904 95.9958C123.708 101.217 116.017 105.137 107.06 106.509C98.1043 107.881 89.5922 106.443 83.0711 103.017C76.55 99.5915 72.0301 94.1847 71.0239 87.6171C70.0178 81.0496 72.7118 74.5376 77.9082 69.3166C83.1045 64.0956 90.7957 60.1753 99.7519 58.8032Z" stroke="#191816" stroke-width="0.336"/>
<path d="M98.7226 52.74C116.565 50.0066 133.055 61.1629 135.577 77.6273C138.1 94.0917 125.706 109.673 107.863 112.407C90.0209 115.14 73.5312 103.984 71.0089 87.5192C68.4865 71.0548 80.88 55.4735 98.7226 52.74Z" stroke="#191816" stroke-width="0.336"/>
<path d="M99.1731 55.6811C117.032 52.9451 133.313 62.8455 135.592 77.7253C137.872 92.6051 125.302 106.925 107.443 109.661C89.5839 112.397 73.3034 102.497 71.0238 87.6172C68.7442 72.7374 81.3141 58.4171 99.1731 55.6811Z" stroke="#191816" stroke-width="0.336"/>
</svg>
