<svg width="538" height="538" viewBox="0 0 538 538" fill="none" xmlns="http://www.w3.org/2000/svg">
<rect width="538" height="538" rx="30" fill="#F4F1EB"/>
<path d="M159 387L169.5 335.5L293.5 222H197.5L212.5 150H428L417 203L296.5 315H396.5L381.5 387H159Z" fill="#ADB5BD"/>
<path d="M148 387L158.5 335.5L282.5 222H186.5L201.5 150H417L406 203L285.5 315H385.5L370.5 387H148Z" fill="#6C757D"/>
<path d="M136 387L146.5 335.5L270.5 222H174.5L189.5 150H405L394 203L273.5 315H373.5L358.5 387H136Z" fill="#495057"/>
<path d="M123 387L133.5 335.5L257.5 222H161.5L176.5 150H392L381 203L260.5 315H360.5L345.5 387H123Z" fill="#343A40"/>
<path d="M109 387L119.5 335.5L243.5 222H130.5L145.5 150H378L367 203L246.5 315H346.5L331.5 387H109Z" fill="#212529"/>
</svg>
